<svg width="42" height="40" viewBox="0 0 42 40" fill="none" xmlns="http://www.w3.org/2000/svg">
<path d="M41.6855 20.4359C41.6088 20.352 41.5155 20.2849 41.4114 20.2391C41.3074 20.1932 41.195 20.1695 41.0813 20.1695H24.3607C24.1989 20.1696 24.0407 20.2176 23.9061 20.3075C23.7716 20.3974 23.6667 20.5252 23.6048 20.6748C23.5429 20.8243 23.5266 20.9888 23.5582 21.1475C23.5897 21.3063 23.6677 21.4521 23.7821 21.5665L35.1652 32.9496C35.3187 33.1031 35.5268 33.1892 35.7438 33.1892C35.9608 33.1892 36.169 33.1031 36.3225 32.9496C39.5119 29.7602 41.4914 25.5382 41.8962 21.0616C41.9065 20.9484 41.893 20.8343 41.8568 20.7265C41.8205 20.6188 41.7621 20.5198 41.6855 20.4359ZM35.7304 31.2002L26.3364 21.8062H40.1623C39.6641 25.2996 38.1157 28.5824 35.7304 31.2002ZM20.1198 20.3596V2.21553C20.1198 1.76355 19.7533 1.39717 19.3014 1.39717C14.1458 1.39717 9.29877 3.40484 5.65326 7.05043C2.00766 10.6959 0 15.543 0 20.6986C0 25.8542 2.00766 30.7012 5.65326 34.3467C9.29877 37.9923 14.1458 40 19.3014 40C24.457 40 29.3041 37.9923 32.9496 34.3467C33.1031 34.1933 33.1893 33.9851 33.1893 33.7681C33.1893 33.5511 33.1031 33.3429 32.9496 33.1894L20.1198 20.3596ZM19.3014 38.3633C9.56106 38.3633 1.6367 30.4389 1.6367 20.6986C1.6367 11.2323 9.12078 3.48127 18.4831 3.05262V20.6986C18.4831 20.9156 18.5693 21.1238 18.7228 21.2772L31.2007 33.7551C27.9402 36.7328 23.746 38.3633 19.3014 38.3633ZM22.6743 18.4334H41.0799C41.1936 18.4334 41.306 18.4097 41.41 18.3638C41.514 18.318 41.6074 18.2509 41.6841 18.167C41.7607 18.0831 41.8191 17.9841 41.8554 17.8764C41.8917 17.7686 41.9051 17.6545 41.8949 17.5413C41.4628 12.7643 39.2719 8.33966 35.7259 5.08246C32.1577 1.80496 27.5226 0 22.6743 0C22.2224 0 21.8559 0.366376 21.8559 0.818352V17.615C21.8559 18.067 22.2224 18.4334 22.6743 18.4334ZM23.4926 1.65512C32.0218 2.03663 38.9773 8.3611 40.162 16.7968H23.4926V1.65512ZM15.47 25.4567C15.47 27.0194 14.2838 28.3328 12.694 28.6791L12.7107 29.3756C12.7216 29.8274 12.3642 30.2025 11.9123 30.2134L11.8922 30.2137C11.4494 30.2137 11.0852 29.8602 11.0745 29.415L11.0571 28.6934C10.1336 28.5099 9.53438 28.0136 8.96186 27.4736C8.63305 27.1634 8.61807 26.6455 8.92822 26.3167C9.23838 25.988 9.75632 25.9729 10.085 26.283C10.7488 26.9092 11.1167 27.1316 11.8596 27.1316C12.9479 27.1316 13.8333 26.3802 13.8333 25.4566C13.8333 24.533 12.9479 23.7816 11.8596 23.7816C9.86876 23.7816 8.24916 22.296 8.24916 20.4699C8.24916 18.9066 9.43634 17.5928 11.0271 17.2471L11.0083 16.4591C10.9975 16.0073 11.355 15.6322 11.8069 15.6214C11.8135 15.6213 11.8202 15.6212 11.8268 15.6212C12.2697 15.6212 12.6339 15.9748 12.6445 16.42L12.6648 17.2676C13.5319 17.4771 14.5591 17.9773 15.0205 18.6793C15.2687 19.0571 15.1637 19.5644 14.786 19.8126C14.4083 20.0608 13.9009 19.9558 13.6527 19.5781C13.4315 19.2414 12.4093 18.7949 11.8596 18.7949C10.7712 18.7949 9.88586 19.5463 9.88586 20.4699C9.88586 21.3934 10.7712 22.1449 11.8596 22.1449C13.8504 22.1449 15.47 23.6306 15.47 25.4567Z" fill="black"/>
</svg>
