<svg width="41" height="41" viewBox="0 0 41 41" fill="none" xmlns="http://www.w3.org/2000/svg">
<path d="M38.7411 21.4913H30.9437C30.8336 20.5551 30.6167 19.6346 30.2972 18.7478H38.8619C39.5066 18.7478 40.0313 18.229 40.0383 17.5843C40.1403 8.30372 32.6489 0.961914 23.6132 0.961914C22.9635 0.961914 22.4368 1.48866 22.4368 2.13838V11.1205C21.5675 10.8368 20.6695 10.6504 19.7591 10.5649V6.12897C19.7591 5.47925 19.2324 4.9525 18.5826 4.9525C8.6315 4.9525 0.577148 13.0051 0.577148 22.9573C0.577148 32.9079 8.63056 40.9619 18.5826 40.9619C22.5662 40.9619 26.3412 39.687 29.4997 37.275C30.0193 36.8782 30.1146 36.1347 29.7161 35.6198L27.0036 32.1156C27.8115 31.3722 28.5183 30.5261 29.1059 29.5987L32.4923 33.9738C32.8881 34.4851 33.6226 34.5812 34.1367 34.1886C37.7575 31.4232 39.8645 27.2291 39.9175 22.6814C39.925 22.0265 39.3957 21.4913 38.7411 21.4913ZM24.7897 3.36293C31.5676 3.91956 37.1617 9.35635 37.6516 16.3948H29.1554C28.0708 14.6534 26.5688 13.1979 24.7897 12.1701V3.36293ZM27.1037 36.0889C24.5695 37.7413 21.6472 38.609 18.5826 38.609C9.95182 38.609 2.93009 31.5876 2.93009 22.9572C2.93009 14.7224 9.32256 7.95242 17.4062 7.34913V10.5647C11.0917 11.1592 6.13386 16.4897 6.13386 22.9571C6.13386 29.8211 11.7181 35.4054 18.5821 35.4054C20.983 35.4054 23.2267 34.7214 25.1302 33.5393L27.1037 36.0889ZM18.5821 33.0524C13.0155 33.0524 8.4868 28.5237 8.4868 22.9571C8.4868 17.3905 13.0155 12.8618 18.5821 12.8618C24.1487 12.8618 28.6774 17.3905 28.6774 22.9571C28.6774 28.5237 24.1487 33.0524 18.5821 33.0524ZM33.6044 31.5665L30.266 27.2534C30.67 26.1573 30.9166 25.0095 30.9984 23.8443H37.4944C37.1764 26.8138 35.8044 29.5377 33.6044 31.5665Z" fill="white"/>
<path d="M19.8452 21.7807H17.3185C16.7161 21.7807 16.226 21.2906 16.226 20.688C16.226 20.0837 16.7152 19.5955 17.3182 19.5955L17.3353 19.5956H19.755C20.1867 19.5999 20.6137 19.7938 20.9269 20.128C21.3712 20.6021 22.1156 20.6263 22.5898 20.1819C23.0638 19.7376 23.088 18.9931 22.6437 18.519C21.8568 17.6794 20.7792 17.2427 19.7583 17.2427V16.2179C19.7583 15.5681 19.2316 15.0414 18.5818 15.0414C17.9321 15.0414 17.4054 15.5681 17.4054 16.2179V17.2427C15.2844 17.2427 13.873 18.8819 13.873 20.6881C13.873 22.588 15.4187 24.1337 17.3185 24.1337H19.8452C20.4476 24.1337 20.9378 24.6238 20.9378 25.2262C20.9378 25.807 20.4789 26.3188 19.8284 26.3188H17.1884C16.8836 26.3157 16.5596 26.2057 16.276 26.0089C15.7421 25.6384 15.0091 25.7711 14.6388 26.3048C14.2684 26.8387 14.4009 27.5717 14.9347 27.9421C15.7603 28.5149 16.5152 28.6717 17.4053 28.6717V29.6966C17.4053 30.3463 17.932 30.8731 18.5818 30.8731C19.2315 30.8731 19.7582 30.3463 19.7582 29.6966V28.6717C21.8967 28.6717 23.2906 27.0166 23.2906 25.2262C23.2908 23.3263 21.7451 21.7807 19.8452 21.7807Z" fill="white"/>
</svg>
