<svg width="40" height="40" viewBox="0 0 40 40" fill="none" xmlns="http://www.w3.org/2000/svg">
<path fill-rule="evenodd" clip-rule="evenodd" d="M33.7547 17.8138C33.6729 17.4559 33.7354 17.0801 33.9287 16.768C34.1221 16.4559 34.4306 16.2326 34.7875 16.1464C35.1444 16.0603 35.5208 16.1182 35.8353 16.3077C36.1497 16.4973 36.3768 16.8031 36.4673 17.1589C36.804 18.5542 36.9826 20.011 36.9826 21.5087C36.9826 31.7134 28.6979 40 18.4913 40C8.28658 40 0 31.7134 0 21.5087C0 11.3021 8.28658 3.01738 18.4913 3.01738C19.989 3.01738 21.4458 3.19599 22.8411 3.53273C23.0211 3.57389 23.1912 3.65037 23.3414 3.75774C23.4917 3.86511 23.6191 4.00123 23.7164 4.15822C23.8136 4.31521 23.8787 4.48995 23.9079 4.67229C23.9371 4.85463 23.9299 5.04096 23.8865 5.22047C23.8432 5.39998 23.7647 5.5691 23.6555 5.71803C23.5463 5.86696 23.4086 5.99274 23.2505 6.08807C23.0923 6.18339 22.9168 6.24638 22.7341 6.27337C22.5514 6.30037 22.3652 6.29083 22.1862 6.24531C19.8766 5.68717 17.4704 5.66034 15.1489 6.16684C12.8274 6.67334 10.6511 7.69997 8.78382 9.16942C6.91656 10.6389 5.40704 12.5128 4.36894 14.6502C3.33085 16.7875 2.79123 19.1326 2.79072 21.5087C2.79072 30.1748 9.8252 37.2093 18.4913 37.2093C20.8674 37.2088 23.2125 36.6692 25.3498 35.6311C27.4872 34.593 29.3611 33.0834 30.8306 31.2162C32.3 29.3489 33.3267 27.1726 33.8332 24.8511C34.3397 22.5296 34.3128 20.1234 33.7547 17.8138Z" fill="#184A47"/>
<path fill-rule="evenodd" clip-rule="evenodd" d="M25.1421 21.5087C25.1421 21.1386 25.2891 20.7837 25.5508 20.522C25.8124 20.2603 26.1674 20.1133 26.5374 20.1133C26.9075 20.1133 27.2624 20.2603 27.5241 20.522C27.7858 20.7837 27.9328 21.1386 27.9328 21.5087C27.9328 26.718 23.7021 30.9488 18.4909 30.9488C15.9876 30.9473 13.5874 29.9522 11.8173 28.1822C10.0473 26.4122 9.05226 24.0119 9.05078 21.5087C9.05177 19.0052 10.0466 16.6044 11.8167 14.834C13.5868 13.0635 15.9873 12.0682 18.4909 12.0668C18.8609 12.0668 19.2158 12.2138 19.4775 12.4754C19.7392 12.7371 19.8862 13.092 19.8862 13.4621C19.8862 13.8322 19.7392 14.1871 19.4775 14.4488C19.2158 14.7105 18.8609 14.8575 18.4909 14.8575C17.1754 14.8575 15.8894 15.2476 14.7956 15.9784C13.7019 16.7092 12.8494 17.748 12.3459 18.9634C11.8425 20.1787 11.7108 21.5161 11.9674 22.8063C12.2241 24.0965 12.8575 25.2816 13.7877 26.2118C14.7179 27.142 15.9031 27.7755 17.1933 28.0321C18.4835 28.2887 19.8208 28.157 21.0362 27.6536C22.2515 27.1502 23.2903 26.2977 24.0211 25.2039C24.752 24.1101 25.1421 22.8242 25.1421 21.5087ZM39.5906 8.07044L33.9031 13.7598C33.7734 13.8896 33.6194 13.9926 33.4499 14.0628C33.2804 14.1331 33.0987 14.1692 32.9152 14.1691H27.2258C26.8557 14.1691 26.5008 14.0221 26.2391 13.7604C25.9775 13.4987 25.8305 13.1438 25.8305 12.7737V7.08439C25.8304 6.90089 25.8665 6.71918 25.9367 6.54966C26.0069 6.38014 26.1099 6.22614 26.2398 6.09647L31.9291 0.408985C32.0973 0.240726 32.3057 0.118252 32.5345 0.0531951C32.7633 -0.0118616 33.0049 -0.0173404 33.2365 0.0372793C33.468 0.091899 33.6817 0.204804 33.8573 0.365268C34.0329 0.525733 34.1646 0.72843 34.2398 0.954106L35.4417 4.55786L39.0454 5.75973C39.2711 5.83495 39.4738 5.96662 39.6343 6.14223C39.7947 6.31785 39.9076 6.53157 39.9623 6.76309C40.0169 6.99462 40.0114 7.23627 39.9464 7.46508C39.8813 7.6939 39.7588 7.90228 39.5906 8.07044ZM36.0222 7.69462L33.8975 6.98578C33.6918 6.91693 33.505 6.80128 33.3516 6.64792C33.1983 6.49457 33.0826 6.30771 33.0138 6.10205L32.3049 3.97739L28.6212 7.66114V11.3784H32.3384L36.0222 7.69462Z" fill="#184A47"/>
<path fill-rule="evenodd" clip-rule="evenodd" d="M26.2404 11.7858C26.37 11.6562 26.5239 11.5534 26.6932 11.4832C26.8626 11.4131 27.0441 11.377 27.2274 11.377C27.4107 11.377 27.5922 11.4131 27.7615 11.4832C27.9309 11.5534 28.0848 11.6562 28.2144 11.7858C28.344 11.9154 28.4468 12.0693 28.5169 12.2387C28.5871 12.408 28.6232 12.5895 28.6232 12.7728C28.6232 12.9561 28.5871 13.1376 28.5169 13.307C28.4468 13.4763 28.344 13.6302 28.2144 13.7598L19.6804 22.292C19.5509 22.4214 19.3971 22.5242 19.2279 22.5942C19.0588 22.6643 18.8774 22.7004 18.6943 22.7004C18.5112 22.7004 18.3298 22.6643 18.1606 22.5942C17.9915 22.5242 17.8377 22.4214 17.7082 22.292C17.5788 22.1625 17.476 22.0087 17.406 21.8395C17.3359 21.6704 17.2998 21.489 17.2998 21.3059C17.2998 21.1228 17.3359 20.9414 17.406 20.7722C17.476 20.6031 17.5788 20.4493 17.7082 20.3198L26.2404 11.7858Z" fill="#184A47"/>
</svg>
