<svg width="34" height="36" viewBox="0 0 34 36" fill="none" xmlns="http://www.w3.org/2000/svg">
<path d="M1.36855 29.94C3.89436 36.1747 7.08155 36.4596 7.78164 35.7024C8.48173 34.9453 8.18093 33.5081 8.11408 32.7505C8.04724 31.993 6.75761 26.3438 6.75761 23.291C6.75761 20.8334 8.34179 18.5633 9.24527 17.7217C10.0126 17.239 11.9186 17.0459 13.4037 20.1351C14.8889 23.2242 17.6365 26.0262 18.8246 27.0411C22.8346 28.8827 25.139 23.588 25.9534 23.9965C26.8066 24.4244 27.903 26.0466 26.3247 29.2317C24.7464 32.4168 25.3965 33.6724 27.7728 32.7219C30.7431 31.5337 33.3793 26.7812 33.6392 22.1772C33.8991 17.5731 30.7996 16.1425 29.3091 15.8444C28.1166 15.6059 26.1734 16.728 25.122 16.8742C22.1004 17.2942 23.6749 17.5785 17.9125 11.3513C12.15 5.1241 6.17304 8.43437 3.69213 11.3513C1.38656 14.0621 -1.88466 21.9097 1.36855 29.94Z" fill="#1A3840"/>
<circle cx="12.5177" cy="3.33998" r="3.33998" fill="#1A3840"/>
<circle cx="30.8633" cy="11.0456" r="2.79127" fill="#1A3840"/>
</svg>
