<svg width="44" height="40" viewBox="0 0 44 40" fill="none" xmlns="http://www.w3.org/2000/svg">
<path d="M10.1781 8.57317C10.1781 8.27505 10.4204 8.03278 10.7185 8.03278H19.0926C19.3907 8.03278 19.633 8.27505 19.633 8.57317C19.633 8.87128 19.3907 9.11355 19.0926 9.11355H10.7185C10.4204 9.11355 10.1781 8.87218 10.1781 8.57317ZM10.7185 13.3817H19.0926C19.3907 13.3817 19.633 13.1394 19.633 12.8413C19.633 12.5432 19.3907 12.3009 19.0926 12.3009H10.7185C10.4204 12.3009 10.1781 12.5432 10.1781 12.8413C10.1781 13.1394 10.4204 13.3817 10.7185 13.3817ZM10.7185 17.6498H29.5688C29.8669 17.6498 30.1092 17.4075 30.1092 17.1094C30.1092 16.8113 29.8669 16.569 29.5688 16.569H10.7185C10.4204 16.569 10.1781 16.8113 10.1781 17.1094C10.1781 17.4075 10.4204 17.6498 10.7185 17.6498ZM29.5697 20.838H10.7194C10.4213 20.838 10.179 21.0803 10.179 21.3784C10.179 21.6765 10.4213 21.9188 10.7194 21.9188H29.5697C29.8678 21.9188 30.1101 21.6765 30.1101 21.3784C30.1101 21.0803 29.8678 20.838 29.5697 20.838ZM29.5697 25.1062H10.7194C10.4213 25.1062 10.179 25.3484 10.179 25.6465C10.179 25.9447 10.4213 26.1869 10.7194 26.1869H29.5697C29.8678 26.1869 30.1101 25.9447 30.1101 25.6465C30.1101 25.3484 29.8678 25.1062 29.5697 25.1062ZM29.5697 29.3743H10.7194C10.4213 29.3743 10.179 29.6166 10.179 29.9147C10.179 30.2128 10.4213 30.455 10.7194 30.455H29.5697C29.8678 30.455 30.1101 30.2128 30.1101 29.9147C30.1101 29.6166 29.8678 29.3743 29.5697 29.3743ZM42.891 21.2956L41.9715 22.2151C41.6247 22.5619 41.169 22.7357 40.7133 22.7357C40.2576 22.7357 39.8019 22.5619 39.4551 22.2151L34.997 17.757C34.5403 17.3003 34.3863 16.6546 34.5313 16.0692L33.9603 15.4982V32.9768H36.9261C37.2242 32.9768 37.4665 33.2191 37.4665 33.5172V36.4884C37.4665 38.4248 35.8913 40 33.9549 40H9.51973C7.58336 40 6.00815 38.4248 6.00815 36.4884V11.0832H0.540382C0.242271 11.0832 0 10.841 0 10.5429V7.53923C0 5.58485 1.58962 3.99523 3.54401 3.99523H21.6522C22.9789 1.61484 25.5205 0 28.434 0C32.712 0 36.1921 3.48006 36.1921 7.75809C36.1921 9.3324 35.7193 10.7977 34.9105 12.0217L36.7442 13.8554C36.8829 13.8212 37.027 13.8014 37.1738 13.8014C37.6502 13.8014 38.097 13.986 38.432 14.321L42.8901 18.7792C43.5845 19.4727 43.5845 20.6021 42.891 21.2956ZM34.2476 12.8863C34.0333 13.1285 33.8045 13.3574 33.5622 13.5717L35.114 15.1235L35.7994 14.4381L34.2476 12.8863ZM21.7558 7.75719C21.7558 11.439 24.7513 14.4354 28.4331 14.4354C32.1149 14.4354 35.1104 11.4399 35.1104 7.75719C35.1104 4.07538 32.1149 1.07986 28.4331 1.07986C24.7513 1.07986 21.7558 4.07538 21.7558 7.75719ZM1.08076 10.0025H6.00815V7.53923C6.00815 6.18107 4.90397 5.07689 3.54671 5.07599H3.54491C2.18585 5.07509 1.08076 6.18017 1.08076 7.53833V10.0025ZM36.3866 34.0576H13.0313V36.4884C13.0313 37.4314 12.6567 38.2879 12.0505 38.9192H33.9558C35.296 38.9192 36.3866 37.8286 36.3866 36.4884V34.0576ZM32.8796 14.4174L32.6967 14.2346C31.4719 15.0433 30.0074 15.5162 28.4331 15.5162C24.1551 15.5162 20.675 12.0361 20.675 7.75719C20.675 6.81512 20.8443 5.91088 21.1533 5.07509H6.08921C6.70704 5.71364 7.08891 6.58186 7.08891 7.53833V36.4884C7.08891 37.8286 8.17959 38.9192 9.51973 38.9192C10.8599 38.9192 11.9506 37.8286 11.9506 36.4884V33.5172C11.9506 33.2191 12.1928 32.9768 12.4909 32.9768H32.8805V14.4174H32.8796ZM42.1264 19.5438L37.6682 15.0857C37.5368 14.9551 37.362 14.8821 37.1738 14.8821C36.9856 14.8821 36.8108 14.9542 36.6793 15.0857L35.7598 16.0052C35.4878 16.2772 35.4878 16.7212 35.7598 16.9932L40.2179 21.4514C40.4899 21.7234 40.934 21.7234 41.2059 21.4514L42.1255 20.5318C42.3993 20.2589 42.3993 19.8158 42.1264 19.5438ZM29.2122 10.1709H26.1779C25.8798 10.1709 25.6375 10.4132 25.6375 10.7113C25.6375 11.0094 25.8798 11.2517 26.1779 11.2517H27.8927V12.5026C27.8927 12.8008 28.135 13.043 28.4331 13.043C28.7312 13.043 28.9735 12.8008 28.9735 12.5026V11.2517H29.2122C30.3245 11.2517 31.2296 10.3465 31.2296 9.23423C31.2296 8.12195 30.3245 7.21681 29.2122 7.21681H27.6541C27.138 7.21681 26.7174 6.79711 26.7174 6.28014C26.7174 5.76408 27.1371 5.34348 27.6541 5.34348H30.6883C30.9864 5.34348 31.2287 5.10121 31.2287 4.8031C31.2287 4.50499 30.9864 4.26272 30.6883 4.26272H28.9735V3.01353C28.9735 2.71542 28.7312 2.47315 28.4331 2.47315C28.135 2.47315 27.8927 2.71542 27.8927 3.01353V4.26452H27.6541C26.5418 4.26452 25.6366 5.16966 25.6366 6.28194C25.6366 7.39423 26.5418 8.29937 27.6541 8.29937H29.2122C29.7282 8.29937 30.1488 8.71907 30.1488 9.23603C30.1488 9.753 29.7291 10.1709 29.2122 10.1709Z" fill="#184A47"/>
</svg>
