<svg width="14" height="22" viewBox="0 0 14 22" fill="none" xmlns="http://www.w3.org/2000/svg">
<path opacity="0.7" d="M7.51656 8.67767H12.7416L12.161 10.9999H7.51656V21.4501H5.1943V10.9999H0.549798V8.67767H5.1943V6.50405C5.1943 4.43376 5.41026 3.68251 5.81434 2.92547C6.21029 2.17747 6.82197 1.56579 7.56996 1.16984C8.32702 0.765768 9.07826 0.549798 11.1486 0.549798C11.7547 0.549798 12.2864 0.607854 12.7416 0.723968V2.87205H11.1486C9.61122 2.87205 9.14328 2.96262 8.66606 3.21807C8.31308 3.40617 8.05067 3.66858 7.86256 4.02156C7.60711 4.49879 7.51656 4.96672 7.51656 6.50405V8.67767Z" fill="white" stroke="white" stroke-width="1.06583"/>
</svg>
