<svg width="44" height="41" viewBox="0 0 44 41" fill="none" xmlns="http://www.w3.org/2000/svg">
<path d="M10.4725 9.09355C10.4725 8.79544 10.7148 8.55317 11.0129 8.55317H19.387C19.6852 8.55317 19.9274 8.79544 19.9274 9.09355C19.9274 9.39166 19.6852 9.63393 19.387 9.63393H11.0129C10.7148 9.63393 10.4725 9.39256 10.4725 9.09355ZM11.0129 13.9021H19.387C19.6852 13.9021 19.9274 13.6598 19.9274 13.3617C19.9274 13.0636 19.6852 12.8213 19.387 12.8213H11.0129C10.7148 12.8213 10.4725 13.0636 10.4725 13.3617C10.4725 13.6598 10.7148 13.9021 11.0129 13.9021ZM11.0129 18.1702H29.8633C30.1614 18.1702 30.4036 17.9279 30.4036 17.6298C30.4036 17.3317 30.1614 17.0894 29.8633 17.0894H11.0129C10.7148 17.0894 10.4725 17.3317 10.4725 17.6298C10.4725 17.9279 10.7148 18.1702 11.0129 18.1702ZM29.8642 21.3584H11.0138C10.7157 21.3584 10.4734 21.6007 10.4734 21.8988C10.4734 22.1969 10.7157 22.4392 11.0138 22.4392H29.8642C30.1623 22.4392 30.4045 22.1969 30.4045 21.8988C30.4045 21.6007 30.1623 21.3584 29.8642 21.3584ZM29.8642 25.6265H11.0138C10.7157 25.6265 10.4734 25.8688 10.4734 26.1669C10.4734 26.465 10.7157 26.7073 11.0138 26.7073H29.8642C30.1623 26.7073 30.4045 26.465 30.4045 26.1669C30.4045 25.8688 30.1623 25.6265 29.8642 25.6265ZM29.8642 29.8947H11.0138C10.7157 29.8947 10.4734 30.1369 10.4734 30.4351C10.4734 30.7332 10.7157 30.9754 11.0138 30.9754H29.8642C30.1623 30.9754 30.4045 30.7332 30.4045 30.4351C30.4045 30.1369 30.1623 29.8947 29.8642 29.8947ZM43.1855 21.816L42.2659 22.7355C41.9192 23.0822 41.4635 23.2561 41.0077 23.2561C40.552 23.2561 40.0963 23.0822 39.7495 22.7355L35.2914 18.2773C34.8348 17.8207 34.6808 17.175 34.8258 16.5896L34.2548 16.0186V33.4972H37.2206C37.5187 33.4972 37.7609 33.7395 37.7609 34.0376V37.0088C37.7609 38.9452 36.1857 40.5204 34.2494 40.5204H9.81417C7.8778 40.5204 6.30258 38.9452 6.30258 37.0088V11.6036H0.834816C0.536705 11.6036 0.294434 11.3614 0.294434 11.0632V8.05962C0.294434 6.10524 1.88406 4.51561 3.83844 4.51561H21.9467C23.2733 2.13523 25.8149 0.520386 28.7284 0.520386C33.0065 0.520386 36.4865 4.00045 36.4865 8.27847C36.4865 9.85279 36.0137 11.3181 35.2049 12.5421L37.0386 14.3758C37.1773 14.3416 37.3214 14.3217 37.4682 14.3217C37.9447 14.3217 38.3914 14.5064 38.7264 14.8414L43.1846 19.2996C43.879 19.9931 43.879 21.1225 43.1855 21.816ZM34.5421 13.4067C34.3278 13.6489 34.0989 13.8778 33.8567 14.0921L35.4085 15.6439L36.0939 14.9585L34.5421 13.4067ZM22.0502 8.27757C22.0502 11.9594 25.0457 14.9558 28.7275 14.9558C32.4094 14.9558 35.4049 11.9603 35.4049 8.27757C35.4049 4.59577 32.4094 1.60025 28.7275 1.60025C25.0457 1.60025 22.0502 4.59577 22.0502 8.27757ZM1.3752 10.5229H6.30258V8.05962C6.30258 6.70146 5.1984 5.59728 3.84114 5.59638H3.83934C2.48028 5.59548 1.3752 6.70056 1.3752 8.05872V10.5229ZM36.6811 34.578H13.3258V37.0088C13.3258 37.9518 12.9511 38.8083 12.345 39.4396H34.2503C35.5904 39.4396 36.6811 38.3489 36.6811 37.0088V34.578ZM33.174 14.9378L32.9912 14.755C31.7663 15.5637 30.3019 16.0366 28.7275 16.0366C24.4495 16.0366 20.9695 12.5565 20.9695 8.27757C20.9695 7.33551 21.1388 6.43127 21.4477 5.59548H6.38364C7.00148 6.23403 7.38335 7.10224 7.38335 8.05872V37.0088C7.38335 38.3489 8.47402 39.4396 9.81417 39.4396C11.1543 39.4396 12.245 38.3489 12.245 37.0088V34.0376C12.245 33.7395 12.4873 33.4972 12.7854 33.4972H33.1749V14.9378H33.174ZM42.4208 20.0642L37.9627 15.6061C37.8312 15.4755 37.6565 15.4025 37.4682 15.4025C37.28 15.4025 37.1053 15.4746 36.9738 15.6061L36.0542 16.5256C35.7822 16.7976 35.7822 17.2416 36.0542 17.5136L40.5124 21.9718C40.7844 22.2438 41.2284 22.2438 41.5004 21.9718L42.4199 21.0522C42.6937 20.7793 42.6937 20.3362 42.4208 20.0642ZM29.5066 10.6913H26.4724C26.1742 10.6913 25.932 10.9336 25.932 11.2317C25.932 11.5298 26.1742 11.772 26.4724 11.772H28.1872V13.023C28.1872 13.3211 28.4294 13.5634 28.7275 13.5634C29.0257 13.5634 29.2679 13.3211 29.2679 13.023V11.772H29.5066C30.6189 11.772 31.524 10.8669 31.524 9.75462C31.524 8.64233 30.6189 7.73719 29.5066 7.73719H27.9485C27.4324 7.73719 27.0118 7.31749 27.0118 6.80053C27.0118 6.28446 27.4315 5.86387 27.9485 5.86387H30.9827C31.2809 5.86387 31.5231 5.62159 31.5231 5.32348C31.5231 5.02537 31.2809 4.7831 30.9827 4.7831H29.2679V3.53392C29.2679 3.23581 29.0257 2.99354 28.7275 2.99354C28.4294 2.99354 28.1872 3.23581 28.1872 3.53392V4.7849H27.9485C26.8362 4.7849 25.9311 5.69004 25.9311 6.80233C25.9311 7.91462 26.8362 8.81976 27.9485 8.81976H29.5066C30.0227 8.81976 30.4433 9.23946 30.4433 9.75642C30.4433 10.2734 30.0236 10.6913 29.5066 10.6913Z" fill="#184A47"/>
</svg>
