<svg width="21" height="21" viewBox="0 0 21 21" fill="none" xmlns="http://www.w3.org/2000/svg">
<path opacity="0.7" d="M16.1069 3.63297C15.8577 3.63297 15.6141 3.70687 15.4069 3.84533C15.1997 3.98377 15.0381 4.18056 14.9428 4.41079C14.8474 4.64102 14.8225 4.89437 14.8711 5.13878C14.9196 5.3832 15.0396 5.6077 15.2159 5.78392C15.3922 5.96012 15.6167 6.08014 15.8611 6.12876C16.1054 6.17736 16.3589 6.15242 16.589 6.05704C16.8193 5.96169 17.016 5.80019 17.1545 5.59299C17.293 5.38578 17.3669 5.14216 17.3669 4.89297C17.3669 4.55879 17.2342 4.23832 16.9978 4.00201C16.7615 3.76573 16.441 3.63297 16.1069 3.63297ZM20.9369 6.17396C20.9165 5.30278 20.7534 4.44084 20.4538 3.62247C20.1869 2.92228 19.7714 2.28823 19.2359 1.76398C18.7159 1.22579 18.0805 0.812877 17.3773 0.556497C16.5611 0.247968 15.6983 0.0810694 14.8259 0.0629989C13.7129 5.06757e-09 13.356 0 10.4999 0C7.64396 0 7.28696 5.06757e-09 6.17396 0.0629989C5.30158 0.0810694 4.43869 0.247968 3.62247 0.556497C2.92075 0.815475 2.28577 1.22803 1.76399 1.76398C1.22579 2.28392 0.812876 2.91945 0.556497 3.62247C0.247964 4.43869 0.0810666 5.30157 0.0630017 6.17396C0 7.28696 0 7.64396 0 10.4999C0 13.3559 0 13.7129 0.0630017 14.8259C0.0810666 15.6983 0.247964 16.5613 0.556497 17.3774C0.812876 18.0805 1.22579 18.716 1.76399 19.2359C2.28577 19.7719 2.92075 20.1843 3.62247 20.4433C4.43869 20.752 5.30158 20.9188 6.17396 20.9368C7.28696 20.9998 7.64396 20.9998 10.4999 20.9998C13.356 20.9998 13.7129 20.9998 14.8259 20.9368C15.6983 20.9188 16.5611 20.752 17.3773 20.4433C18.0805 20.187 18.7159 19.774 19.2359 19.2359C19.7738 18.7135 20.1896 18.079 20.4538 17.3774C20.7534 16.5589 20.9165 15.6972 20.9369 14.8259C20.9369 13.7129 20.9999 13.3559 20.9999 10.4999C20.9999 7.64396 20.9999 7.28696 20.9369 6.17396ZM19.0468 14.6999C19.0392 15.3665 18.9186 16.0268 18.6899 16.6529C18.5222 17.1099 18.253 17.5227 17.9024 17.8604C17.5618 18.2075 17.1497 18.4762 16.6949 18.6478C16.0688 18.8765 15.4084 18.9972 14.7419 19.0049C13.692 19.0574 13.3035 19.0679 10.5419 19.0679C7.78045 19.0679 7.39196 19.0679 6.34196 19.0049C5.6499 19.0178 4.9608 18.9112 4.30497 18.6899C3.87005 18.5095 3.4769 18.2414 3.14998 17.9024C2.80148 17.5652 2.53557 17.1519 2.37298 16.6948C2.11663 16.0598 1.97445 15.3844 1.95298 14.6999C1.95298 13.6499 1.88999 13.2614 1.88999 10.4999C1.88999 7.73845 1.88999 7.34996 1.95298 6.29997C1.95769 5.61857 2.08208 4.94331 2.32049 4.30497C2.50534 3.86178 2.78906 3.46672 3.14998 3.14998C3.46899 2.78897 3.86323 2.50224 4.30497 2.30999C4.945 2.07903 5.61956 1.95832 6.29997 1.95298C7.34995 1.95298 7.73845 1.88999 10.4999 1.88999C13.2614 1.88999 13.6499 1.88999 14.7 1.95298C15.3665 1.96063 16.0268 2.08134 16.653 2.30999C17.13 2.48707 17.5583 2.77498 17.9024 3.14998C18.2466 3.47251 18.5154 3.86684 18.6899 4.30497C18.9233 4.94435 19.0441 5.61933 19.0468 6.29997C19.0994 7.34996 19.1098 7.73845 19.1098 10.4999C19.1098 13.2614 19.0994 13.6499 19.0468 14.6999ZM10.4999 5.11347C9.43505 5.11554 8.39466 5.43322 7.51024 6.02634C6.62582 6.61948 5.93706 7.46146 5.53099 8.44588C5.12491 9.43031 5.01972 10.513 5.22876 11.5572C5.43777 12.6014 5.95162 13.5601 6.70534 14.3124C7.45906 15.0648 8.41886 15.5768 9.46343 15.7837C10.508 15.9907 11.5905 15.8833 12.5742 15.4753C13.5578 15.0674 14.3985 14.377 14.9898 13.4914C15.5812 12.6058 15.8969 11.5648 15.8969 10.4999C15.8983 9.7913 15.7595 9.08939 15.4887 8.43456C15.218 7.77972 14.8202 7.18491 14.3187 6.68431C13.8171 6.18372 13.2214 5.78723 12.5662 5.51765C11.9108 5.24806 11.2086 5.1107 10.4999 5.11347ZM10.4999 13.9964C9.8084 13.9964 9.1324 13.7914 8.5574 13.4072C7.9824 13.023 7.53425 12.4769 7.26961 11.838C7.00496 11.1991 6.93572 10.4961 7.07064 9.8178C7.20556 9.13955 7.53856 8.51654 8.02755 8.02756C8.51653 7.53856 9.13954 7.20556 9.81781 7.07064C10.4961 6.93573 11.1991 7.00497 11.838 7.26961C12.4769 7.53425 13.023 7.98241 13.4071 8.5574C13.7913 9.13239 13.9964 9.8084 13.9964 10.4999C13.9964 10.9591 13.9059 11.4138 13.7303 11.838C13.5546 12.2622 13.2969 12.6477 12.9724 12.9723C12.6476 13.297 12.2622 13.5545 11.838 13.7303C11.4138 13.9059 10.9591 13.9964 10.4999 13.9964Z" fill="white"/>
</svg>
