<svg width="34" height="29" viewBox="0 0 34 29" fill="none" xmlns="http://www.w3.org/2000/svg">
<path d="M1.3826 22.3507C3.93434 28.6494 7.15423 28.9372 7.86151 28.1723C8.56879 27.4074 8.2649 25.9555 8.19737 25.1901C8.12984 24.4248 6.82698 18.7176 6.82698 15.6335C6.82698 13.1506 8.42742 10.8572 9.34017 10.007C10.1154 9.51934 12.0409 9.32429 13.5413 12.4451C15.0417 15.566 17.8175 18.3968 19.0178 19.4221C23.069 21.2826 25.3971 15.9336 26.2198 16.3462C27.0817 16.7785 28.1894 18.4174 26.5949 21.6352C25.0004 24.853 25.6572 26.1214 28.0578 25.1612C31.0587 23.9608 33.7219 19.1595 33.9845 14.5082C34.247 9.85693 31.1157 8.41158 29.6099 8.11042C28.4052 7.86949 26.442 9.00315 25.3799 9.1508C22.3272 9.57517 23.9179 9.86235 18.0963 3.57123C12.2747 -2.71989 6.2364 0.624361 3.73003 3.57123C1.40079 6.30983 -1.904 14.238 1.3826 22.3507Z" fill="#DDE9E8"/>
</svg>
