<svg width="41" height="44" viewBox="0 0 41 44" fill="none" xmlns="http://www.w3.org/2000/svg">
<path d="M39.4922 41.9619L33.6203 36.09M8.98376 12.1314H12.3736M8.98376 18.9111H15.7634M19.1533 1.96191H5.59393C3.72173 1.96191 2.2041 3.47954 2.2041 5.35174V38.5721C2.2041 40.4441 3.72173 41.9619 5.59393 41.9619H15.7634M19.1533 1.96191V8.74158C19.1533 10.6137 20.671 12.1314 22.5431 12.1314H29.3227M19.1533 1.96191L29.3227 12.1314M29.3227 15.5212V12.1314" stroke="white" stroke-width="2.5" stroke-miterlimit="10" stroke-linecap="round" stroke-linejoin="round"/>
<path d="M27.6279 38.5721C32.3083 38.5721 36.1025 34.7779 36.1025 30.0975C36.1025 25.4171 32.3083 21.6229 27.6279 21.6229C22.9475 21.6229 19.1533 25.4171 19.1533 30.0975C19.1533 34.7779 22.9475 38.5721 27.6279 38.5721Z" stroke="white" stroke-width="2.5" stroke-miterlimit="10" stroke-linecap="round" stroke-linejoin="round"/>
</svg>
