<svg width="20" height="14" viewBox="0 0 20 14" fill="none" xmlns="http://www.w3.org/2000/svg">
<path opacity="0.7" d="M19.636 3.02085C19.636 3.02085 19.4421 1.64844 18.8456 1.04583C18.0903 0.252716 17.2457 0.248819 16.8584 0.202163C14.0849 -6.17617e-08 9.9206 0 9.9206 0H9.91285C9.91285 0 5.74859 -6.17617e-08 2.97502 0.202163C2.58765 0.248819 1.74317 0.252716 0.987798 1.04583C0.391243 1.64844 0.201433 3.02085 0.201433 3.02085C0.201433 3.02085 0 4.63429 0 6.24385V7.75232C0 9.3619 0.197559 10.9753 0.197559 10.9753C0.197559 10.9753 0.391243 12.3477 0.98393 12.9503C1.7393 13.7435 2.73097 13.7163 3.17258 13.8018C4.7608 13.9533 9.91671 14 9.91671 14C9.91671 14 14.0849 13.9923 16.8584 13.794C17.2457 13.7473 18.0903 13.7435 18.8456 12.9503C19.4421 12.3477 19.636 10.9753 19.636 10.9753C19.636 10.9753 19.8334 9.36578 19.8334 7.75232V6.24385C19.8334 4.63429 19.636 3.02085 19.636 3.02085ZM7.86753 9.58349V3.98891L13.2249 6.79592L7.86753 9.58349Z" fill="white"/>
</svg>
