<svg width="20" height="20" viewBox="0 0 20 20" fill="none" xmlns="http://www.w3.org/2000/svg">
<path fill-rule="evenodd" clip-rule="evenodd" d="M9.85205 19.384C14.9815 19.384 19.1397 15.2258 19.1397 10.0964C19.1397 4.96704 14.9815 0.808838 9.85205 0.808838C4.72265 0.808838 0.564453 4.96704 0.564453 10.0964C0.564453 15.2258 4.72265 19.384 9.85205 19.384ZM14.1558 8.59545C14.6092 8.14207 14.6092 7.407 14.1558 6.95362C13.7024 6.50024 12.9674 6.50024 12.514 6.95362L8.6911 10.7765L7.19012 9.27552C6.73674 8.82214 6.00167 8.82214 5.54829 9.27552C5.09491 9.7289 5.09491 10.464 5.54829 10.9174L7.87019 13.2393C8.32357 13.6926 9.05864 13.6926 9.51202 13.2393L14.1558 8.59545Z" fill="white"/>
</svg>
