<svg width="44" height="44" viewBox="0 0 44 44" fill="none" xmlns="http://www.w3.org/2000/svg">
<path d="M8.54867 1.9618V8.74146H1.76904" stroke="white" stroke-width="2.5" stroke-miterlimit="10"/>
<path d="M6.85352 18.572H17.023" stroke="white" stroke-width="2.5" stroke-miterlimit="10"/>
<path d="M6.85352 25.3516H17.023" stroke="white" stroke-width="2.5" stroke-miterlimit="10"/>
<path d="M6.85352 32.1312H17.023" stroke="white" stroke-width="2.5" stroke-miterlimit="10"/>
<path d="M41.769 38.5721C41.769 40.4442 40.2514 41.9619 38.3792 41.9619H24.82C22.9479 41.9619 21.4302 40.4442 21.4302 38.5721V18.2331C21.4302 16.361 22.9479 14.8433 24.82 14.8433H38.3792C40.2514 14.8433 41.769 16.361 41.769 18.2331V38.5721Z" stroke="white" stroke-width="2.5" stroke-miterlimit="10"/>
<path d="M26.5142 21.6228H36.6836" stroke="white" stroke-width="2.5" stroke-miterlimit="10"/>
<path d="M28.2095 28.8475C28.455 28.8473 28.6538 28.6478 28.6538 28.4022C28.6536 28.1568 28.4549 27.9581 28.2095 27.9579C27.9639 27.9579 27.7644 28.1567 27.7642 28.4022C27.7642 28.6479 27.9638 28.8475 28.2095 28.8475Z" fill="white" stroke="white" stroke-width="2.5"/>
<path d="M34.9893 28.8475C35.2348 28.8473 35.4336 28.6478 35.4336 28.4022C35.4334 28.1568 35.2347 27.9581 34.9893 27.9579C34.7437 27.9579 34.5442 28.1567 34.5439 28.4022C34.5439 28.6479 34.7436 28.8475 34.9893 28.8475Z" fill="white" stroke="white" stroke-width="2.5"/>
<path d="M34.9893 35.6272C35.2348 35.627 35.4336 35.4275 35.4336 35.1819C35.4334 34.9365 35.2347 34.7378 34.9893 34.7375C34.7437 34.7375 34.5442 34.9364 34.5439 35.1819C34.5439 35.4276 34.7436 35.6272 34.9893 35.6272Z" fill="white" stroke="white" stroke-width="2.5"/>
<path d="M28.2095 35.6272C28.455 35.627 28.6538 35.4275 28.6538 35.1819C28.6536 34.9365 28.4549 34.7378 28.2095 34.7375C27.9639 34.7375 27.7644 34.9364 27.7642 35.1819C27.7642 35.4276 27.9638 35.6272 28.2095 35.6272Z" fill="white" stroke="white" stroke-width="2.5"/>
<path d="M15.3283 41.9619H5.15885C3.28675 41.9619 1.76904 40.4442 1.76904 38.5721V8.7416C1.76904 4.99728 4.80437 1.96194 8.54867 1.96194H28.2096C30.0818 1.96194 31.5994 3.47965 31.5994 5.35177V8.7416" stroke="white" stroke-width="2.5" stroke-miterlimit="10" stroke-linecap="square"/>
</svg>
