<svg width="40" height="40" viewBox="0 0 43 41" fill="none" xmlns="http://www.w3.org/2000/svg">
<path d="M41.9101 20.8318C41.8334 20.7478 41.7401 20.6808 41.6361 20.6349C41.532 20.5891 41.4196 20.5654 41.3059 20.5654H24.5853C24.4235 20.5654 24.2653 20.6135 24.1307 20.7034C23.9962 20.7933 23.8913 20.9211 23.8294 21.0706C23.7675 21.2201 23.7513 21.3847 23.7828 21.5434C23.8144 21.7021 23.8923 21.8479 24.0067 21.9624L35.3898 33.3455C35.5433 33.4989 35.7514 33.5851 35.9684 33.5851C36.1855 33.5851 36.3936 33.4989 36.5471 33.3455C39.7365 30.1561 41.716 25.9341 42.1208 21.4575C42.1311 21.3443 42.1177 21.2302 42.0814 21.1224C42.0451 21.0147 41.9868 20.9157 41.9101 20.8318ZM35.955 31.596L26.561 22.2021H40.3869C39.8887 25.6955 38.3404 28.9783 35.955 31.596ZM20.3444 20.7555V2.6114C20.3444 2.15942 19.9779 1.79305 19.526 1.79305C14.3704 1.79305 9.52338 3.80071 5.87787 7.44631C2.23227 11.0918 0.224609 15.9388 0.224609 21.0945C0.224609 26.2501 2.23227 31.0971 5.87787 34.7426C9.52338 38.3881 14.3704 40.3959 19.526 40.3959C24.6816 40.3959 29.5287 38.3882 33.1743 34.7426C33.3277 34.5891 33.4139 34.381 33.4139 34.164C33.4139 33.9469 33.3277 33.7388 33.1743 33.5853L20.3444 20.7555ZM19.526 38.7592C9.78567 38.7592 1.86131 30.8348 1.86131 21.0945C1.86131 11.6282 9.34539 3.87715 18.7077 3.44849V21.0945C18.7077 21.3115 18.7939 21.5197 18.9474 21.6731L31.4253 34.1509C28.1648 37.1287 23.9706 38.7592 19.526 38.7592ZM22.8989 18.8293H41.3045C41.4182 18.8293 41.5306 18.8056 41.6346 18.7597C41.7387 18.7138 41.832 18.6468 41.9087 18.5629C41.9853 18.4789 42.0437 18.38 42.08 18.2722C42.1163 18.1645 42.1297 18.0504 42.1195 17.9372C41.6874 13.1601 39.4965 8.73554 35.9505 5.47833C32.3823 2.20083 27.7472 0.395874 22.8989 0.395874C22.447 0.395874 22.0805 0.76225 22.0805 1.21423V18.0109C22.0805 18.4629 22.447 18.8293 22.8989 18.8293ZM23.7172 2.05099C32.2464 2.43251 39.2019 8.75698 40.3866 17.1926H23.7172V2.05099ZM15.6946 25.8525C15.6946 27.4153 14.5084 28.7287 12.9186 29.0749L12.9353 29.7715C12.9462 30.2233 12.5889 30.5984 12.137 30.6093L12.1168 30.6095C11.674 30.6095 11.3098 30.2561 11.2991 29.8109L11.2817 29.0893C10.3582 28.9058 9.75899 28.4095 9.18647 27.8694C8.85765 27.5593 8.84268 27.0413 9.15283 26.7126C9.46299 26.3839 9.98092 26.3687 10.3097 26.6789C10.9734 27.3051 11.3413 27.5274 12.0842 27.5274C13.1725 27.5274 14.0579 26.776 14.0579 25.8524C14.0579 24.9289 13.1725 24.1775 12.0842 24.1775C10.0934 24.1775 8.47377 22.6919 8.47377 20.8658C8.47377 19.3024 9.66095 17.9886 11.2517 17.643L11.2329 16.855C11.2221 16.4032 11.5796 16.0281 12.0315 16.0173C12.0381 16.0172 12.0448 16.0171 12.0514 16.0171C12.4943 16.0171 12.8585 16.3707 12.8691 16.8159L12.8894 17.6635C13.7566 17.873 14.7838 18.3732 15.2451 19.0752C15.4933 19.4529 15.3884 19.9603 15.0106 20.2085C14.6329 20.4566 14.1255 20.3516 13.8773 19.974C13.6561 19.6373 12.6339 19.1908 12.0842 19.1908C10.9958 19.1908 10.1105 19.9422 10.1105 20.8657C10.1105 21.7893 10.9958 22.5407 12.0842 22.5407C14.075 22.5408 15.6946 24.0265 15.6946 25.8525Z" fill="black"/>
</svg>
