<svg width="35" height="37" viewBox="0 0 35 37" fill="none" xmlns="http://www.w3.org/2000/svg">
<path d="M2.18692 30.5149C4.71275 36.7496 7.89995 37.0345 8.60005 36.2774C9.30015 35.5202 8.99934 34.0831 8.9325 33.3255C8.86565 32.5679 7.57602 26.9187 7.57602 23.8659C7.57602 21.4082 9.16021 19.1381 10.0637 18.2965C10.831 17.8138 12.737 17.6207 14.2222 20.7099C15.7074 23.7991 18.455 26.6011 19.6431 27.616C23.6531 29.4576 25.9576 24.1629 26.772 24.5714C27.6251 24.9993 28.7216 26.6215 27.1433 29.8066C25.5649 32.9918 26.215 34.2473 28.5913 33.2968C31.5617 32.1087 34.1979 27.3561 34.4578 22.752C34.7177 18.148 31.6181 16.7173 30.1276 16.4192C28.9352 16.1807 26.9919 17.3028 25.9406 17.449C22.9189 17.8691 24.4935 18.1533 18.7309 11.9261C12.9684 5.69884 6.99144 9.00913 4.51052 11.9261C2.20493 14.6369 -1.06631 22.4846 2.18692 30.5149Z" fill="#DDE9E8"/>
<circle cx="13.3361" cy="3.91471" r="3.34" fill="#DDE9E8"/>
<circle cx="31.6819" cy="11.6204" r="2.79129" fill="#DDE9E8"/>
</svg>
