<svg width="37" height="37" viewBox="0 0 37 37" fill="none" xmlns="http://www.w3.org/2000/svg">
<path fill-rule="evenodd" clip-rule="evenodd" d="M33.7706 14.8034C33.6887 14.4453 33.7513 14.0694 33.9447 13.7571C34.1381 13.4449 34.4468 13.2214 34.8038 13.1352C35.1609 13.049 35.5375 13.107 35.8521 13.2966C36.1667 13.4862 36.3939 13.7922 36.4844 14.1482C36.8213 15.5442 37 17.0016 37 18.5C37 28.7095 28.7114 37 18.5 37C8.29047 37 0 28.7095 0 18.5C0 8.28861 8.29047 0 18.5 0C19.9984 0 21.4558 0.17869 22.8518 0.515595C23.032 0.556769 23.2021 0.633285 23.3524 0.740706C23.5027 0.848127 23.6302 0.984317 23.7275 1.14138C23.8248 1.29844 23.89 1.47326 23.9192 1.65569C23.9484 1.83812 23.9411 2.02453 23.8978 2.20412C23.8544 2.38372 23.7758 2.55292 23.6666 2.70192C23.5573 2.85092 23.4196 2.97676 23.2614 3.07213C23.1032 3.1675 22.9276 3.23052 22.7448 3.25752C22.562 3.28453 22.3757 3.27499 22.1967 3.22945C19.8859 2.67104 17.4786 2.6442 15.156 3.15094C12.8334 3.65768 10.6561 4.68479 8.78795 6.15493C6.91981 7.62507 5.40958 9.49991 4.371 11.6383C3.33241 13.7766 2.79254 16.1228 2.79203 18.5C2.79203 27.1702 9.82981 34.208 18.5 34.208C20.8772 34.2075 23.2234 33.6676 25.3617 32.629C27.5001 31.5904 29.3749 30.0802 30.8451 28.2121C32.3152 26.3439 33.3423 24.1666 33.8491 21.844C34.3558 19.5214 34.329 17.1141 33.7706 14.8034Z" fill="#184A47"/>
</svg>
