<svg xmlns="http://www.w3.org/2000/svg" width="1024" height="1024" viewBox="0 0 1024 1024" version="1.1"><path d="M 597 139.678 C 597 140.016, 598.491 142.590, 600.313 145.396 C 602.136 148.203, 606.748 155.442, 610.563 161.483 C 623.893 182.588, 639.985 195.773, 660.623 202.500 L 669.827 205.500 678.574 215.966 C 688.983 228.422, 700 245.186, 700 248.569 C 700 248.925, 696.063 245.209, 691.250 240.310 C 686.438 235.411, 680.419 230.016, 677.877 228.321 C 668.502 222.071, 651.539 217, 640.009 217 L 635.194 217 641.847 223.350 C 655.489 236.373, 668.526 245.498, 679.835 249.942 C 685.714 252.252, 688.590 252.821, 697.473 253.431 L 703.446 253.842 708.065 264.671 C 716.741 285.011, 721.416 301.216, 724.531 321.750 C 725.541 328.406, 723.627 326.736, 721.093 318.750 C 715.124 299.935, 702.520 284.083, 684.019 272.118 C 678.852 268.777, 674.483 266.184, 674.311 266.356 C 674.138 266.528, 674.893 270.231, 675.989 274.585 C 681.457 296.319, 696.057 314.882, 716.312 325.852 C 719.508 327.584, 722.954 329, 723.969 329 C 725.502 329, 725.884 329.973, 726.220 334.750 C 727.135 347.720, 726.040 372.592, 724.117 382.500 C 720.872 399.226, 718.822 406.342, 717.660 404.917 C 717.473 404.687, 717.773 400.234, 718.326 395.021 C 720.078 378.517, 716.768 365.971, 706.731 351.066 C 703.018 345.554, 690.908 331.173, 689.888 331.065 C 688.706 330.940, 689.869 346.611, 691.852 357.523 C 694.239 370.657, 698.436 382.651, 703.313 390.275 C 707.968 397.552, 716.318 406.727, 717.828 406.224 C 718.571 405.976, 718.115 408.400, 716.616 412.663 C 715.294 416.424, 713.233 422.650, 712.037 426.500 C 708.911 436.557, 701.308 452.069, 693.695 463.922 C 690.071 469.564, 686.919 474.702, 686.690 475.340 C 686.461 475.978, 685.917 476.167, 685.480 475.760 C 685.044 475.353, 685.387 473.328, 686.243 471.260 C 694.793 450.591, 695.466 447.687, 694.682 434.818 C 694.241 427.579, 693.249 422.534, 690.932 415.738 C 687.269 404.994, 683.535 396.449, 682.123 395.576 C 680.973 394.865, 676.628 408.411, 674.931 418 C 673.277 427.340, 673.492 446.232, 675.341 454.078 C 676.194 457.696, 678.535 464.395, 680.544 468.964 C 683.388 475.432, 683.983 477.740, 683.231 479.386 C 681.375 483.446, 667.282 499.571, 657.928 508.336 C 649.774 515.978, 633.621 528.914, 629 531.503 C 627.368 532.418, 629.120 530.218, 635.308 523.583 C 648.900 509.011, 656.074 490.156, 656.266 468.500 C 656.355 458.578, 655.909 451, 655.238 451 C 654.194 451, 647.485 459.057, 643.400 465.217 C 632.359 481.866, 627.008 499.250, 626.416 520.389 C 626.217 527.478, 625.930 533.380, 625.778 533.505 C 622.063 536.533, 600.749 547.591, 592 551.028 C 575.801 557.391, 561.270 562.160, 551.147 564.435 C 544.903 565.838, 533.750 569.046, 526.363 571.565 C 511.671 576.574, 511.251 576.587, 500.918 572.389 C 493.919 569.545, 484.311 566.806, 468 563.006 C 447.839 558.309, 424.541 548.779, 405 537.235 L 398.500 533.395 398.301 522.448 C 398.192 516.426, 397.586 508.125, 396.953 504 C 394.746 489.604, 386.126 471.378, 374.741 457.034 L 369.609 450.569 368.687 454.034 C 367.300 459.248, 368.653 481.391, 370.868 489.724 C 374.236 502.400, 380.145 513.330, 389.803 524.750 C 392.245 527.638, 393.821 530, 393.306 530 C 391.162 530, 370.713 512.445, 360.500 501.836 C 346.468 487.261, 339.495 478.408, 341.455 477.655 C 342.241 477.354, 342.849 476.296, 342.807 475.304 C 342.765 474.312, 343.895 470.350, 345.320 466.500 C 352.576 446.886, 352.732 429.685, 345.864 406.500 C 344.724 402.650, 343.561 398.262, 343.282 396.750 C 342.716 393.694, 341 392.979, 341 395.800 C 341 396.790, 340.587 398.028, 340.083 398.550 C 338.434 400.259, 332.172 420.425, 330.453 429.565 C 328.222 441.424, 328.991 449.245, 333.482 460.386 C 335.404 465.153, 337.657 470.370, 338.488 471.977 C 340.247 475.379, 340.453 477.398, 338.945 476.466 C 337.243 475.414, 327.635 460.209, 322.853 451 C 316.804 439.352, 313.915 432.447, 309.488 419.055 L 305.705 407.610 308.689 405.055 C 313.248 401.152, 320.712 391.501, 323.640 385.724 C 327.168 378.761, 329.677 371.306, 332.127 360.500 C 334.397 350.488, 335.841 332, 334.354 332 C 331.580 332, 318.088 349.041, 312.184 360 C 305.505 372.397, 303.783 383.406, 305.887 400.250 C 306.576 405.767, 305.565 408.408, 304.546 403.750 C 298.962 378.200, 296.472 357.048, 297.358 342.691 C 297.670 337.636, 297.942 332.488, 297.963 331.250 C 297.990 329.599, 298.595 329, 300.234 329 C 303.851 329, 314.031 323.379, 320.628 317.739 C 329.625 310.047, 336.436 301.608, 341.459 291.932 C 345.634 283.888, 350.551 269.154, 349.807 266.920 C 349.283 265.348, 331.268 278.257, 323.794 285.560 C 320.091 289.179, 315.040 295.179, 312.571 298.893 C 308.126 305.579, 302.534 318.081, 301.358 323.958 C 300.337 329.064, 298.874 327.361, 299.462 321.750 C 301.165 305.480, 304.399 293.589, 312.972 272.069 C 318.877 257.248, 320.639 254.129, 323.510 253.408 C 324.877 253.065, 326.601 253.017, 327.341 253.301 C 330.593 254.549, 347.331 249.361, 355 244.728 C 361.830 240.601, 372.609 232.116, 380.500 224.654 L 388.500 217.089 384.500 217.046 C 377.533 216.971, 364.441 219.766, 357.073 222.901 C 347.577 226.942, 338.407 233.636, 330.503 242.297 C 326.926 246.215, 324 249.057, 324 248.612 C 324 247.106, 331.222 234.540, 335.814 228.057 C 338.323 224.513, 342.992 218.575, 346.188 214.861 C 349.385 211.147, 352 207.647, 352 207.083 C 352 206.519, 355.263 205.082, 359.250 203.890 C 375.878 198.919, 390.190 189.595, 401.131 176.606 C 407.929 168.535, 426.471 141.138, 425.674 140.341 C 424.222 138.888, 398.637 149.942, 388.947 156.209 C 381.465 161.048, 369.008 172.876, 362.983 180.864 C 360.137 184.636, 356.643 190.981, 354.886 195.567 C 352.411 202.027, 350.317 205.313, 344.372 212.067 C 336.326 221.207, 329.713 230.582, 324.081 240.832 C 317.466 252.872, 315.491 248.955, 321.917 236.538 C 332.075 216.908, 336.431 203.028, 338.029 185.195 C 339.123 172.992, 338.161 157.641, 336.374 158.781 C 335.755 159.177, 332.655 163.100, 329.486 167.500 C 310.207 194.266, 305.112 226.575, 316.993 246.713 L 318.983 250.085 315.616 256.792 C 303.524 280.887, 295 317.171, 295 344.551 C 295 358.940, 296.431 377.708, 298.007 384 C 298.490 385.925, 299.158 389.525, 299.492 392 C 299.827 394.475, 300.326 397.400, 300.603 398.500 C 301.052 400.286, 300.885 400.246, 299.040 398.124 C 297.904 396.817, 296.785 394.792, 296.553 393.624 C 289.889 360.076, 280.496 337.791, 264.199 316.863 L 256.500 306.976 256.193 318.238 C 255.252 352.839, 268.465 380.985, 293.343 397.368 L 301.530 402.760 306.940 419.130 C 320.216 459.310, 341.997 491.796, 374.266 519.546 C 396.226 538.430, 418.891 551.314, 445.102 559.811 C 456.335 563.453, 469.686 567, 472.159 567 C 473.853 567, 495.414 573.766, 501.250 576.129 C 502.762 576.742, 504 577.632, 504 578.107 C 504 578.582, 501.411 580.278, 498.248 581.875 C 492.123 584.966, 485.235 589.901, 477.639 596.638 L 472.973 600.776 475.587 601.432 C 477.024 601.793, 479.511 603.057, 481.112 604.241 L 484.023 606.393 488.262 602.390 C 493.974 596.993, 500.360 592.014, 507.065 587.730 L 512.631 584.175 520.065 589.209 C 524.154 591.978, 530.569 596.951, 534.319 600.259 L 541.138 606.274 543.838 604.278 C 545.324 603.180, 547.575 601.952, 548.842 601.550 C 551.088 600.837, 551.100 600.766, 549.323 598.755 C 546.351 595.390, 532.938 585.731, 526.750 582.500 C 523.590 580.850, 521.004 579.136, 521.002 578.691 C 521.001 578.246, 521.450 578.160, 522 578.500 C 522.550 578.840, 523 578.495, 523 577.734 C 523 576.079, 538.906 570.572, 556.914 565.992 C 604.010 554.013, 635.209 536.479, 666.664 504.313 C 672.804 498.033, 681.094 488.419, 685.087 482.948 C 690.121 476.050, 692.964 473, 694.360 473 C 698.395 473, 711.686 468.668, 719 464.969 C 737.481 455.623, 751.155 438.491, 760.667 412.765 C 763.103 406.178, 764.953 400.358, 764.778 399.833 C 764.260 398.280, 741.119 414.171, 733.182 421.529 C 724.425 429.647, 716.428 439.749, 704.112 458.250 C 699.078 465.812, 694.518 472, 693.979 472 C 692.476 472, 692.762 471.207, 695.912 466.628 C 702.978 456.358, 711.780 436.591, 718.946 414.901 C 722.897 402.942, 723.287 402.226, 727.120 399.921 C 745.315 388.977, 756.521 375.096, 762.941 355.549 C 766.971 343.280, 768.339 332.012, 768.085 313.155 L 768 306.811 764.499 311.002 C 757.452 319.435, 749.119 331.704, 745.139 339.503 C 738.555 352.405, 735.523 361.647, 728.335 390.711 C 726.683 397.392, 724 401.201, 724 396.866 C 724 395.557, 724.422 393.015, 724.938 391.216 C 728.250 379.667, 730.277 345.406, 728.559 330 C 723.806 287.383, 708.405 247.774, 685.204 218.500 C 677.904 209.289, 674.789 206.062, 673.167 206.028 C 672.433 206.013, 672.027 205.438, 672.264 204.750 C 672.890 202.928, 666.878 189.141, 662.961 183.417 C 657.986 176.147, 641.369 159.789, 634.586 155.483 C 623.619 148.521, 614.731 144.600, 598.250 139.453 C 597.563 139.238, 597 139.340, 597 139.678 M 685.700 165.041 C 684.599 178.174, 686.525 196.967, 690.203 208.978 C 691.302 212.565, 694.848 220.923, 698.084 227.552 C 701.320 234.181, 704.603 241.381, 705.380 243.552 L 706.793 247.500 708.875 242.904 C 716.511 226.048, 715.065 205.883, 704.624 183.646 C 700.539 174.947, 690.691 160.526, 687.688 158.845 C 686.564 158.216, 686.169 159.448, 685.700 165.041 M 284.693 227.044 C 276.006 246.419, 273.275 273.608, 278.093 292.760 C 280.432 302.060, 285.420 313.240, 289.780 318.956 L 292.432 322.433 293.253 318.966 C 296.188 306.583, 297.900 287.670, 297.552 271.500 C 297.149 252.826, 295.542 243.645, 290.200 229.500 L 287.179 221.500 284.693 227.044 M 735 223.629 C 735 224.525, 733.847 228.455, 732.437 232.363 C 725.090 252.729, 724.169 277.623, 729.490 312 C 730.214 316.675, 730.562 320.896, 730.264 321.380 C 729.966 321.864, 730.309 322.064, 731.026 321.825 C 733.340 321.053, 742.932 303.925, 745.718 295.590 C 748.198 288.172, 748.426 286.171, 748.461 271.500 C 748.494 257.856, 748.157 254.204, 746.173 246.699 C 743.188 235.413, 737.572 222, 735.831 222 C 735.374 222, 735 222.733, 735 223.629 M 400 258.393 L 400 264 404.250 264.074 C 417.113 264.299, 422.744 267.620, 425.100 276.371 C 426.632 282.060, 426.461 428.573, 424.916 434.312 C 422.829 442.064, 416.817 446.002, 404.750 447.524 L 400 448.123 400 453.186 C 400 458.237, 400.008 458.248, 402.891 457.672 C 416.762 454.898, 463.794 454.397, 478.250 456.870 L 483 457.683 483 452.944 L 483 448.205 476.250 447.042 C 468.758 445.752, 464.077 443.092, 461.441 438.631 C 459.076 434.628, 458.144 419.616, 458.064 384.250 L 458 356 512 356 L 566 356 565.992 387.750 C 565.984 423.254, 565.120 434.452, 561.998 439.504 C 559.324 443.831, 552.760 446.996, 546.154 447.145 L 541 447.261 541 452.451 L 541 457.641 546.250 456.863 C 562.637 454.434, 606.310 454.884, 621.750 457.642 L 625 458.223 625 453.248 L 625 448.274 617.697 447.096 C 608.310 445.582, 604.442 443.197, 601.682 437.223 C 599.502 432.503, 599.500 432.447, 599.500 358.500 C 599.500 317.800, 599.873 281.888, 600.329 278.695 C 601.758 268.685, 606.923 264.857, 620.500 263.746 C 623.388 263.509, 623.511 263.299, 623.807 258.121 C 624.073 253.457, 623.893 252.827, 622.458 253.378 C 614.658 256.371, 567.315 257.264, 550.250 254.740 L 541 253.372 541 258.557 L 541 263.742 547.186 264.442 C 554.133 265.227, 557.408 266.640, 560.867 270.344 C 565.056 274.829, 565.880 281.814, 565.971 313.645 L 566.055 343 511.874 343 L 457.693 343 458.303 311.750 C 458.639 294.563, 459.390 278.865, 459.972 276.866 C 462.243 269.066, 467.278 265.358, 476.975 264.345 L 483 263.715 483 258.389 C 483 254.546, 482.652 253.193, 481.750 253.529 C 477.300 255.189, 452.638 256.877, 438.500 256.490 C 422.344 256.048, 404.655 254.572, 401.639 253.415 C 400.241 252.878, 400 253.609, 400 258.393 M 259 400.572 C 259 403.118, 265.729 419.660, 270.488 428.814 C 282.274 451.483, 298.393 465.221, 319.980 470.998 C 329.970 473.672, 330.629 473.610, 328.004 470.250 C 326.822 468.738, 321.860 461.425, 316.976 454 C 303.997 434.267, 288.765 418.258, 273.877 408.701 C 270.370 406.449, 265.587 403.361, 263.250 401.837 C 260.028 399.738, 259 399.432, 259 400.572 M 290 483.634 C 290 485.035, 307.377 503.082, 313.722 508.270 C 326.774 518.943, 340.724 526.226, 353.463 529.017 C 359.661 530.375, 378.478 530.405, 380.784 529.061 C 382.385 528.128, 382.380 528.059, 380.706 528.030 C 379.720 528.014, 377.245 526.461, 375.206 524.581 C 371.261 520.941, 353.133 507.442, 346.556 503.246 C 340.114 499.136, 323.979 491.439, 317 489.148 C 310.735 487.090, 293.820 483.066, 291.250 483.022 C 290.563 483.010, 290 483.285, 290 483.634 M 719.432 485.443 C 708.487 488.273, 697.055 492.745, 687.153 498.070 C 677.074 503.491, 671.470 507.349, 657.536 518.460 C 650.955 523.707, 644.768 528, 643.786 528 C 642.804 528, 642 528.450, 642 529 C 642 530.030, 651.299 530.575, 661 530.114 C 675.228 529.439, 691.317 522.943, 705.809 512.023 C 713.022 506.588, 730.946 488.634, 733.225 484.562 C 734.479 482.321, 730.530 482.573, 719.432 485.443 M 415.568 501.750 C 419.597 520.020, 426.219 532.205, 438.423 543.797 C 446.028 551.021, 457.192 557.445, 467.328 560.430 C 471.779 561.740, 472.102 561.720, 471.451 560.176 C 471.062 559.254, 469.882 556.306, 468.829 553.625 C 462.598 537.768, 452.806 524.588, 439.229 513.785 C 432.928 508.770, 417.459 499, 415.821 499 C 415.349 499, 415.235 500.238, 415.568 501.750 M 604.500 501.548 C 602.300 502.852, 599.145 504.613, 597.488 505.461 C 591.985 508.277, 577.203 520.873, 571.155 527.900 C 563.969 536.250, 557.979 546.118, 554.544 555.269 L 552.003 562.037 554.752 561.389 C 569.254 557.970, 587.082 545.461, 596.067 532.403 C 601.787 524.089, 609.691 504.373, 608.822 500.583 C 608.570 499.482, 607.628 499.693, 604.500 501.548 M 367.798 551.892 C 361.911 552.816, 356.867 553.799, 356.588 554.078 C 355.381 555.285, 377.027 567.504, 388 571.810 C 398.081 575.765, 406.885 577.306, 419.500 577.321 C 432.172 577.336, 440.996 575.537, 451.950 570.702 L 456.954 568.494 445.227 563.812 C 427.837 556.869, 411.862 552.360, 400.211 551.107 C 386.981 549.684, 380.937 549.830, 367.798 551.892 M 617 551.969 C 603.902 554.424, 569.118 566.730, 569.781 568.675 C 569.936 569.129, 573.862 570.963, 578.506 572.751 C 589.454 576.968, 603.605 578.653, 615.089 577.107 C 629.293 575.196, 648.219 567.824, 662.404 558.678 C 670.380 553.536, 671.106 554.121, 653.500 551.500 C 640.641 549.586, 628.910 549.737, 617 551.969 M 753 663.087 C 739.932 664.538, 730.703 669.087, 722.644 678.051 C 710.318 691.760, 707.690 714.764, 716.422 732.509 C 724.483 748.890, 739.046 757.447, 760.500 758.406 C 769.773 758.821, 782.330 757.060, 789.500 754.339 L 794.500 752.442 795 736.322 C 795.435 722.303, 795.748 719.928, 797.405 718.101 C 798.453 716.946, 799.915 716, 800.655 716 C 801.395 716, 802 715.334, 802 714.520 C 802 713.271, 799.347 713.043, 785 713.054 C 770.736 713.065, 768 713.303, 768 714.534 C 768 715.507, 769.043 716, 771.100 716 C 773.298 716, 775.199 716.999, 777.630 719.430 L 781.061 722.861 780.780 735.626 L 780.500 748.392 777.079 750.388 C 772.472 753.076, 759.659 753.230, 752.329 750.687 C 731.298 743.387, 720.672 710.308, 731.563 686.040 C 734.692 679.067, 739.755 673.901, 746.500 670.799 C 750.709 668.864, 753.161 668.500, 762 668.500 C 771.205 668.500, 773.099 668.806, 777.354 670.979 C 782.822 673.772, 786.269 677.443, 789.318 683.718 C 792.908 691.107, 794.006 689.424, 793.926 676.655 L 793.855 665.311 781.177 664.118 C 764.359 662.535, 759.555 662.359, 753 663.087 M 352.310 664.431 C 352.481 664.943, 354.113 665.865, 355.937 666.479 C 357.762 667.093, 360.097 668.636, 361.127 669.909 C 362.884 672.078, 362.999 674.550, 362.985 709.861 C 362.974 737.951, 362.653 748.134, 361.720 750 C 360.844 751.752, 359.203 752.782, 356.235 753.442 C 353.894 753.963, 352 754.969, 352 755.692 C 352 756.721, 355.841 757, 370 757 C 384.692 757, 388 756.745, 388 755.611 C 388 754.827, 386.537 753.948, 384.637 753.592 C 378.119 752.369, 377.537 750.725, 377.184 732.525 L 376.869 716.254 382.676 716.377 L 388.483 716.500 401.771 736 C 410.375 748.626, 415.841 755.729, 417.279 756.150 C 418.501 756.508, 423.887 756.845, 429.250 756.900 C 436.951 756.979, 439 756.708, 439 755.611 C 439 754.816, 437.504 753.942, 435.499 753.566 C 431.426 752.802, 425.677 746.411, 415.778 731.641 C 412.409 726.613, 407.930 720.157, 405.826 717.293 C 401.533 711.450, 401.369 711, 403.533 711 C 406.587 711, 414.869 705.983, 417.919 702.284 C 423.687 695.293, 424.642 685.688, 420.414 677.203 C 417.410 671.175, 414.762 669.066, 406.500 666.122 C 401.090 664.194, 398.116 663.960, 376.249 663.742 C 361.608 663.596, 352.122 663.869, 352.310 664.431 M 517.667 663.663 C 517.575 663.753, 517.638 669.442, 517.806 676.305 C 518.083 687.629, 518.274 688.741, 519.866 688.325 C 520.925 688.048, 522.073 686.176, 522.760 683.607 C 524.197 678.235, 531.143 671.577, 536.938 670.017 C 539.352 669.367, 543.520 669.186, 547.004 669.580 L 552.950 670.253 553.225 704.876 C 553.376 723.919, 553.258 741.911, 552.962 744.858 C 552.350 750.955, 550.717 752.702, 544.737 753.658 C 542.583 754.002, 541.084 754.754, 541.294 755.384 C 541.546 756.141, 547.836 756.587, 560.833 756.772 C 577.444 757.007, 580 756.840, 580 755.522 C 580 754.573, 579.076 754, 577.547 754 C 576.198 754, 573.978 753.492, 572.615 752.870 C 567.745 750.651, 567.488 748.367, 567.652 708.726 C 567.736 688.501, 568.059 671.289, 568.371 670.476 C 569.118 668.528, 580.767 668.458, 585.355 670.375 C 590.572 672.555, 595.876 677.841, 598.150 683.127 C 601.774 691.552, 603 689.688, 603 675.750 L 603 663.500 560.417 663.500 C 536.996 663.500, 517.759 663.573, 517.667 663.663 M 652.831 664.711 C 650.977 665.860, 649.550 668.228, 648.162 672.458 C 644.933 682.292, 619.414 745.719, 617.527 748.599 C 616.578 750.048, 614.050 751.969, 611.911 752.867 C 609.771 753.765, 608.016 755.075, 608.010 755.778 C 607.996 757.592, 635.145 757.075, 635.751 755.250 C 635.997 754.511, 635.296 754, 634.038 754 C 630.945 754, 626.988 749.629, 627.063 746.295 C 627.097 744.758, 628.785 739.305, 630.813 734.179 L 634.500 724.858 650.792 724.770 C 659.752 724.723, 667.476 725.092, 667.956 725.592 C 669.673 727.379, 676.082 745.227, 676.289 748.799 C 676.493 752.326, 676.365 752.470, 672.216 753.370 C 669.860 753.880, 668.098 754.794, 668.300 755.399 C 668.763 756.787, 702 757.338, 702 755.958 C 702 755.446, 700.448 754.378, 698.551 753.586 C 694.661 751.960, 692.394 748.016, 684.707 729.500 C 676.366 709.409, 665.278 682.624, 661.351 673.079 C 659.220 667.898, 657.031 663.523, 656.488 663.357 C 655.944 663.192, 654.299 663.801, 652.831 664.711 M 136 665 C 136 665.550, 136.935 666, 138.077 666 C 139.219 666, 141.469 667.315, 143.077 668.923 L 146 671.846 145.994 708.173 C 145.991 729.245, 145.570 746.008, 144.991 748.091 C 144.025 751.569, 140.924 754, 137.453 754 C 136.654 754, 136 754.675, 136 755.500 C 136 756.775, 138.556 757, 153 757 C 167.444 757, 170 756.775, 170 755.500 C 170 754.521, 169.019 754, 167.174 754 C 165.431 754, 163.420 753.013, 161.924 751.421 C 159.537 748.882, 159.500 748.556, 159.500 730.171 L 159.500 711.500 182.790 711.500 C 205.594 711.500, 206.091 711.544, 206.609 713.594 C 206.900 714.746, 206.995 723.138, 206.819 732.242 C 206.461 750.837, 206.014 752.088, 199.167 753.708 C 191.402 755.544, 195.817 756.505, 213.250 756.773 C 228.600 757.009, 231 756.840, 231 755.523 C 231 754.584, 230.084 754, 228.611 754 C 227.297 754, 225.167 753.146, 223.878 752.103 C 221.928 750.524, 221.442 748.972, 220.977 742.853 C 220.527 736.934, 220.470 687.799, 220.898 674.250 C 221.020 670.377, 223.916 667.167, 228.031 666.344 C 235.255 664.899, 229.681 664, 213.500 664 C 202.500 664, 196 664.371, 196 665 C 196 665.550, 197.160 666, 198.577 666 C 200.092 666, 202.359 667.205, 204.077 668.923 L 207 671.846 207 687.423 L 207 703 184 703 C 171.350 703, 160.662 703.112, 160.250 703.250 C 159.838 703.388, 159.382 696.975, 159.238 689 C 158.932 672.112, 160.061 668.218, 165.750 666.543 C 167.537 666.017, 169 665.229, 169 664.793 C 169 664.357, 161.575 664, 152.500 664 C 142.167 664, 136 664.374, 136 665 M 255 664.889 C 255 665.377, 256.513 666.061, 258.363 666.408 C 265.284 667.707, 265.085 666.418, 265.024 709.467 C 264.992 731.790, 264.568 748.938, 264.023 749.957 C 263.105 751.673, 259.379 753.569, 255.697 754.194 C 254.706 754.362, 253.806 754.950, 253.697 755.500 C 253.569 756.148, 266.021 756.592, 289.038 756.762 L 324.575 757.025 326.318 746.920 C 327.277 741.362, 328.160 736.321, 328.281 735.717 C 328.401 735.113, 327.704 734.445, 326.731 734.232 C 325.487 733.961, 324.540 734.857, 323.538 737.256 C 321.747 741.540, 315.317 747.423, 310.881 748.834 C 306.754 750.147, 293.211 751.872, 286.784 751.903 C 279.088 751.940, 279 751.692, 279 729.929 L 279 711 288.250 711.006 C 302.527 711.014, 308 713.430, 308 719.723 C 308 721.333, 308.585 722, 310 722 C 311.909 722, 312 721.333, 312 707.427 C 312 694.215, 311.840 692.884, 310.290 693.183 C 309.253 693.382, 308.300 694.879, 307.870 696.982 C 307.480 698.890, 306.212 701.219, 305.054 702.157 C 302.263 704.418, 293.036 705.589, 281.750 705.115 L 279 705 279 686.884 L 279 668.768 292.258 669.156 C 305.002 669.528, 305.691 669.659, 310.008 672.528 C 312.817 674.395, 315.350 677.197, 316.769 680.007 C 320.383 687.165, 321.460 685.929, 321.785 674.250 L 322.070 664 288.535 664 C 269.645 664, 255 664.388, 255 664.889 M 459 664.824 C 459 665.277, 461.132 666.289, 463.737 667.074 C 466.943 668.039, 468.878 669.308, 469.723 671 C 470.652 672.861, 470.974 682.996, 470.985 710.673 L 471 747.847 468.411 750.923 C 466.612 753.061, 464.934 754, 462.911 754 C 460.990 754, 460 754.510, 460 755.501 C 460 756.781, 462.640 756.994, 478 756.950 C 493.028 756.907, 496 756.659, 496 755.449 C 496 754.652, 495.121 754, 494.047 754 C 490.817 754, 487.289 751.930, 486.110 749.343 C 484.893 746.671, 484.670 676.491, 485.864 672 C 486.298 670.369, 487.989 668.805, 490.728 667.500 C 493.038 666.400, 494.944 665.163, 494.964 664.750 C 494.984 664.337, 486.900 664, 477 664 C 467.100 664, 459 664.371, 459 664.824 M 825 664.875 C 825 665.356, 826.237 666.026, 827.750 666.363 C 829.263 666.700, 831.400 667.676, 832.500 668.531 C 834.440 670.040, 834.500 671.272, 834.500 709.439 C 834.500 746.604, 834.395 748.907, 832.613 750.876 C 831.575 752.023, 829.212 753.245, 827.363 753.592 C 825.513 753.939, 824 754.827, 824 755.565 C 824 756.661, 830.311 756.920, 858.366 756.974 L 892.732 757.040 893.847 751.270 C 894.461 748.096, 895.258 742.913, 895.619 739.750 C 896.178 734.850, 896.036 734, 894.658 734 C 893.768 734, 892.133 735.780, 891.023 737.955 C 886.627 746.572, 878.219 750.562, 862.341 751.567 C 853.393 752.133, 851.241 751.995, 850.240 750.790 C 849.426 749.808, 848.838 742.954, 848.460 730.031 L 847.896 710.739 858.976 711.195 C 871.450 711.709, 874.755 713.162, 876.386 718.852 C 877.260 721.898, 879.945 723.288, 880.053 720.750 C 880.083 720.063, 880.195 713.538, 880.303 706.251 C 880.480 694.357, 880.326 693.002, 878.795 693.001 C 877.645 693, 876.881 694.116, 876.446 696.435 C 876.092 698.324, 874.962 700.629, 873.936 701.558 C 870.649 704.533, 858.367 706.255, 848.707 705.095 C 847.847 704.992, 847.849 674.292, 848.709 671.004 C 849.190 669.167, 850.068 669, 859.251 669 C 864.760 669, 870.982 669.514, 873.078 670.141 C 878.296 671.705, 883.521 676.243, 885.644 681.054 C 886.733 683.523, 887.988 684.956, 888.904 684.780 C 890.104 684.549, 890.404 682.499, 890.447 674.246 L 890.500 664 857.750 664 C 839.702 664, 825 664.393, 825 664.875 M 376.796 684.314 C 376.633 693.216, 376.637 702.638, 376.805 705.250 L 377.110 710 385.587 710 C 395.504 710, 399.321 708.677, 403.660 703.735 C 409.926 696.598, 410.546 686.707, 405.269 678.056 C 401.421 671.748, 395.841 669.100, 385.238 668.550 L 377.092 668.128 376.796 684.314 M 650 683.259 C 650 683.493, 647.300 691.251, 644 700.500 C 640.700 709.749, 638.001 717.582, 638.001 717.908 C 638.002 718.234, 644.078 718.500, 651.502 718.500 C 658.927 718.500, 664.986 718.275, 664.967 718 C 664.810 715.757, 651.950 683.483, 651.100 683.200 C 650.495 682.998, 650 683.025, 650 683.259 M 444.267 797.996 C 434.703 800.016, 426.354 806.572, 421.953 815.516 C 419.900 819.687, 419.500 821.968, 419.500 829.500 C 419.500 837.119, 419.882 839.248, 421.991 843.378 C 425.460 850.171, 431.184 855.734, 437.842 858.782 C 442.792 861.048, 444.814 861.371, 454 861.364 C 461.956 861.357, 465.833 860.873, 470 859.365 L 475.500 857.376 476 846.596 C 476.448 836.947, 476.736 835.625, 478.750 833.998 C 479.988 832.998, 481 831.914, 481 831.590 C 481 831.265, 475.505 831, 468.788 831 L 456.576 831 461.038 833.250 L 465.500 835.500 465.500 844.988 L 465.500 854.476 462.500 855.931 C 458.609 857.819, 449.519 857.642, 444.745 855.586 C 440.820 853.896, 435.890 848.012, 433.367 842.008 C 431.463 837.477, 430.269 824.832, 431.162 818.653 C 432.699 808.013, 441.577 801.029, 453.593 801.010 C 461.999 800.996, 467.621 804.022, 470.851 810.299 C 472.171 812.864, 473.645 814.720, 474.126 814.422 C 474.606 814.125, 475 810.591, 475 806.570 L 475 799.258 470.250 798.665 C 460.463 797.443, 448.359 797.131, 444.267 797.996 M 816.601 798.539 C 809.495 800.325, 805.347 802.767, 800.717 807.891 C 790.265 819.461, 790.569 839.769, 801.376 851.731 C 810.434 861.757, 832.531 864.960, 846.543 858.278 L 850 856.630 850 846.451 C 850 836.847, 850.145 836.127, 852.576 833.696 L 855.153 831.120 843.074 830.810 C 835.331 830.611, 831.116 830.859, 831.331 831.500 C 831.515 832.050, 832.528 832.657, 833.583 832.850 C 834.637 833.042, 836.513 834.133, 837.750 835.274 C 839.648 837.024, 839.998 838.376, 839.986 843.924 C 839.968 852.742, 839.332 854.620, 835.881 856.049 C 828.739 859.007, 817.528 856.527, 812.367 850.847 C 804.532 842.226, 802.002 822.829, 807.300 812.007 C 811.724 802.971, 823.083 798.803, 834.542 802.012 C 839.390 803.369, 844.522 808.248, 845.594 812.518 C 846.831 817.449, 848 814.837, 848 807.139 L 848 799.279 842.750 798.614 C 830.845 797.107, 822.396 797.083, 816.601 798.539 M 173.316 799.445 C 173.489 799.965, 174.913 800.734, 176.480 801.153 C 178.047 801.572, 179.698 802.497, 180.149 803.208 C 181.315 805.044, 181.209 853.740, 180.036 855.934 C 179.505 856.925, 177.705 858.009, 176.036 858.343 C 174.366 858.677, 173 859.446, 173 860.053 C 173 860.829, 178.552 861.059, 191.750 860.828 C 209.710 860.514, 210.744 860.386, 216.290 857.787 C 221.244 855.466, 222.374 854.409, 224.116 850.470 C 228.666 840.184, 223.332 830.801, 210.500 826.518 C 208.698 825.917, 208.799 825.724, 211.519 824.571 C 213.179 823.867, 215.991 821.635, 217.769 819.611 C 223.934 812.589, 221.306 803.340, 212.100 799.657 C 208.993 798.414, 204.583 798.135, 190.597 798.296 C 180.081 798.418, 173.128 798.880, 173.316 799.445 M 246.324 799.472 C 246.502 800.007, 247.736 800.702, 249.066 801.016 C 253.394 802.037, 253.968 804.997, 254.007 826.500 C 254.056 853.017, 255.423 856.154, 268.841 860.543 C 279.982 864.187, 295.357 859.947, 300.801 851.729 C 303.465 847.707, 303.507 847.385, 304.041 826.577 C 304.338 814.985, 304.957 804.690, 305.417 803.700 C 305.877 802.710, 307.563 801.637, 309.165 801.317 C 314.891 800.172, 311.308 798.926, 301.239 798.560 C 295.607 798.356, 291 798.528, 291 798.943 C 291 799.357, 292.800 800.404, 295 801.268 L 299 802.839 299 823.399 C 299 851.357, 297.480 854.782, 284.018 857.154 C 278.352 858.152, 277.620 858.049, 272.468 855.528 C 263.780 851.278, 263.500 850.335, 263.500 825.403 C 263.500 803.083, 263.812 801.465, 268.244 800.810 C 269.399 800.640, 270.491 800.050, 270.671 799.500 C 270.877 798.869, 266.383 798.500, 258.498 798.500 C 250.846 798.500, 246.125 798.877, 246.324 799.472 M 333.298 799.383 C 333.458 799.869, 335.139 800.769, 337.033 801.383 C 340.189 802.406, 340.538 802.919, 341.193 807.500 C 341.586 810.250, 341.816 821.994, 341.704 833.597 C 341.483 856.475, 341.282 857.340, 335.931 858.515 C 334.319 858.869, 333 859.621, 333 860.186 C 333 860.867, 339.465 861.065, 352.250 860.773 C 369.439 860.381, 372.119 860.085, 377.280 858.017 C 389.924 852.948, 397 842.719, 397 829.510 C 397 813.754, 387.070 801.850, 371.616 799.079 C 364.555 797.814, 332.864 798.065, 333.298 799.383 M 503.327 799.474 C 503.504 800.010, 505.137 800.753, 506.954 801.124 C 508.772 801.496, 510.643 802.408, 511.114 803.150 C 512.327 805.064, 512.230 853.702, 511.008 855.984 C 510.463 857.004, 508.663 858.135, 507.008 858.498 C 499.164 860.221, 505.668 861, 527.897 861 L 551.795 861 552.897 854.668 C 553.504 851.186, 554 847.811, 554 847.168 C 554 845.010, 552.129 845.974, 550.307 849.069 C 547.220 854.313, 542.944 856.197, 532.820 856.775 C 525.766 857.177, 523.604 856.985, 522.914 855.895 C 522.428 855.128, 522.024 848.987, 522.015 842.250 L 522 830 528.777 830 C 536.184 830, 540 831.719, 540 835.057 C 540 836.138, 540.682 837, 541.538 837 C 542.831 837, 543.029 835.531, 542.788 827.750 C 542.617 822.257, 542.094 818.585, 541.500 818.710 C 540.950 818.826, 540.369 819.742, 540.209 820.746 C 539.760 823.553, 536.914 824.789, 529.131 825.556 L 522 826.258 522 813.999 L 522 801.739 530.750 802.276 C 541.409 802.930, 544.108 804.068, 546.938 809.103 C 548.142 811.246, 549.549 813, 550.064 813 C 550.579 813, 551 809.589, 551 805.419 L 551 797.838 527.002 798.169 C 512.021 798.376, 503.126 798.866, 503.327 799.474 M 575.175 806.500 C 575.110 811.175, 575.232 815, 575.446 815 C 577.215 815, 579 813.457, 579 811.928 C 579 810.906, 580.384 808.493, 582.076 806.566 C 585.465 802.707, 589.815 801.368, 595.500 802.434 L 599 803.091 599 828.464 C 599 842.419, 598.735 854.526, 598.412 855.370 C 598.088 856.213, 596.288 857.410, 594.412 858.029 C 588.065 860.124, 590.893 861, 604 861 C 612 861, 617 860.615, 617 860 C 617 859.450, 616.100 859, 615 859 C 613.900 859, 612.100 858.100, 611 857 C 609.100 855.100, 609 853.667, 609 828.380 L 609 801.760 614.878 802.185 C 622.082 802.706, 625.752 804.960, 627.772 810.102 C 630.370 816.714, 632 815.132, 632 806 L 632 798 603.647 798 L 575.295 798 575.175 806.500 M 656.318 799.454 C 656.493 799.979, 658.015 800.766, 659.701 801.202 C 661.651 801.708, 662.985 802.815, 663.369 804.248 C 664.382 808.026, 664.077 853.987, 663.027 855.949 C 662.492 856.949, 660.454 858.067, 658.499 858.434 C 656.544 858.801, 655.208 859.528, 655.531 860.051 C 656.346 861.368, 682 861.295, 682 859.975 C 682 859.411, 680.615 858.673, 678.922 858.334 C 676.913 857.933, 675.523 856.877, 674.922 855.294 C 673.693 852.063, 673.729 806.375, 674.962 804.071 C 675.491 803.083, 677.291 801.708, 678.962 801.016 C 680.633 800.324, 682 799.474, 682 799.129 C 682 798.783, 676.150 798.500, 669 798.500 C 661.195 798.500, 656.127 798.881, 656.318 799.454 M 705 799.087 C 705 799.575, 706.578 800.632, 708.506 801.438 C 710.672 802.343, 712.417 803.968, 713.071 805.686 C 713.740 807.446, 714.013 817.006, 713.814 831.701 C 713.476 856.729, 713.307 857.508, 708.048 858.310 C 706.705 858.515, 705.432 859.204, 705.219 859.842 C 704.942 860.675, 708.083 861, 716.417 861 C 727.961 861, 731.254 859.900, 724.750 858.216 C 719.549 856.869, 719.031 854.662, 719.015 833.750 C 719.007 823.438, 719.337 815.037, 719.750 815.082 C 720.739 815.190, 750.480 848.052, 760.185 859.760 C 761.662 861.542, 763.350 863, 763.935 863 C 764.664 863, 765 853.895, 765 834.191 C 765 803.197, 765.094 802.604, 770.232 801.230 C 775.637 799.785, 772.809 798.851, 762.500 798.677 C 754.672 798.545, 752 798.818, 752 799.750 C 752 800.438, 752.930 801, 754.066 801 C 755.202 801, 757.002 801.466, 758.066 802.035 C 759.876 803.004, 760 804.314, 760 822.535 C 760 833.241, 759.663 841.960, 759.250 841.911 C 758.837 841.863, 756.063 839.050, 753.083 835.661 C 748.484 830.430, 739.580 820.721, 722.939 802.795 C 719.697 799.303, 719.085 799.065, 712.250 798.646 C 708.263 798.402, 705 798.600, 705 799.087 M 191 814 L 191 826 195.684 826 C 201.635 826, 208.589 822.696, 210.527 818.947 C 211.337 817.381, 212 814.092, 212 811.639 C 212 807.885, 211.512 806.767, 208.923 804.589 C 206.218 802.313, 204.950 802, 198.423 802 L 191 802 191 814 M 351.079 825.250 C 351.119 838.038, 351.461 850.300, 351.839 852.500 L 352.526 856.500 358.329 856.802 C 378.078 857.829, 388.393 844.802, 384.947 823.183 C 382.649 808.766, 373.911 802.090, 357.253 802.024 L 351.006 802 351.079 825.250 M 197.221 829.798 L 190.943 830.097 191.221 843.298 L 191.500 856.500 197.542 856.792 C 205.641 857.184, 210.855 855.349, 213.713 851.102 C 217.518 845.449, 216.353 838.277, 210.845 833.441 C 207.291 830.320, 204.115 829.471, 197.221 829.798" stroke="none" fill="#d4bb7a" fill-rule="evenodd"/><path d="M 0 512.001 L 0 1024.002 512.250 1023.751 L 1024.500 1023.500 1024.751 511.750 L 1025.002 0 512.501 0 L 0 0 0 512.001 M 0.496 512.500 C 0.496 794.100, 0.610 909.151, 0.750 768.168 C 0.890 627.186, 0.890 396.786, 0.750 256.168 C 0.610 115.551, 0.496 230.900, 0.496 512.500 M 597 139.678 C 597 140.016, 598.491 142.590, 600.313 145.396 C 602.136 148.203, 606.748 155.442, 610.563 161.483 C 623.893 182.588, 639.985 195.773, 660.623 202.500 L 669.827 205.500 678.574 215.966 C 688.983 228.422, 700 245.186, 700 248.569 C 700 248.925, 696.063 245.209, 691.250 240.310 C 686.438 235.411, 680.419 230.016, 677.877 228.321 C 668.502 222.071, 651.539 217, 640.009 217 L 635.194 217 641.847 223.350 C 655.489 236.373, 668.526 245.498, 679.835 249.942 C 685.714 252.252, 688.590 252.821, 697.473 253.431 L 703.446 253.842 708.065 264.671 C 716.741 285.011, 721.416 301.216, 724.531 321.750 C 725.541 328.406, 723.627 326.736, 721.093 318.750 C 715.124 299.935, 702.520 284.083, 684.019 272.118 C 678.852 268.777, 674.483 266.184, 674.311 266.356 C 674.138 266.528, 674.893 270.231, 675.989 274.585 C 681.457 296.319, 696.057 314.882, 716.312 325.852 C 719.508 327.584, 722.954 329, 723.969 329 C 725.502 329, 725.884 329.973, 726.220 334.750 C 727.135 347.720, 726.040 372.592, 724.117 382.500 C 720.872 399.226, 718.822 406.342, 717.660 404.917 C 717.473 404.687, 717.773 400.234, 718.326 395.021 C 720.078 378.517, 716.768 365.971, 706.731 351.066 C 703.018 345.554, 690.908 331.173, 689.888 331.065 C 688.706 330.940, 689.869 346.611, 691.852 357.523 C 694.239 370.657, 698.436 382.651, 703.313 390.275 C 707.968 397.552, 716.318 406.727, 717.828 406.224 C 718.571 405.976, 718.115 408.400, 716.616 412.663 C 715.294 416.424, 713.233 422.650, 712.037 426.500 C 708.911 436.557, 701.308 452.069, 693.695 463.922 C 690.071 469.564, 686.919 474.702, 686.690 475.340 C 686.461 475.978, 685.917 476.167, 685.480 475.760 C 685.044 475.353, 685.387 473.328, 686.243 471.260 C 694.793 450.591, 695.466 447.687, 694.682 434.818 C 694.241 427.579, 693.249 422.534, 690.932 415.738 C 687.269 404.994, 683.535 396.449, 682.123 395.576 C 680.973 394.865, 676.628 408.411, 674.931 418 C 673.277 427.340, 673.492 446.232, 675.341 454.078 C 676.194 457.696, 678.535 464.395, 680.544 468.964 C 683.388 475.432, 683.983 477.740, 683.231 479.386 C 681.375 483.446, 667.282 499.571, 657.928 508.336 C 649.774 515.978, 633.621 528.914, 629 531.503 C 627.368 532.418, 629.120 530.218, 635.308 523.583 C 648.900 509.011, 656.074 490.156, 656.266 468.500 C 656.355 458.578, 655.909 451, 655.238 451 C 654.194 451, 647.485 459.057, 643.400 465.217 C 632.359 481.866, 627.008 499.250, 626.416 520.389 C 626.217 527.478, 625.930 533.380, 625.778 533.505 C 622.063 536.533, 600.749 547.591, 592 551.028 C 575.801 557.391, 561.270 562.160, 551.147 564.435 C 544.903 565.838, 533.750 569.046, 526.363 571.565 C 511.671 576.574, 511.251 576.587, 500.918 572.389 C 493.919 569.545, 484.311 566.806, 468 563.006 C 447.839 558.309, 424.541 548.779, 405 537.235 L 398.500 533.395 398.301 522.448 C 398.192 516.426, 397.586 508.125, 396.953 504 C 394.746 489.604, 386.126 471.378, 374.741 457.034 L 369.609 450.569 368.687 454.034 C 367.300 459.248, 368.653 481.391, 370.868 489.724 C 374.236 502.400, 380.145 513.330, 389.803 524.750 C 392.245 527.638, 393.821 530, 393.306 530 C 391.162 530, 370.713 512.445, 360.500 501.836 C 346.468 487.261, 339.495 478.408, 341.455 477.655 C 342.241 477.354, 342.849 476.296, 342.807 475.304 C 342.765 474.312, 343.895 470.350, 345.320 466.500 C 352.576 446.886, 352.732 429.685, 345.864 406.500 C 344.724 402.650, 343.561 398.262, 343.282 396.750 C 342.716 393.694, 341 392.979, 341 395.800 C 341 396.790, 340.587 398.028, 340.083 398.550 C 338.434 400.259, 332.172 420.425, 330.453 429.565 C 328.222 441.424, 328.991 449.245, 333.482 460.386 C 335.404 465.153, 337.657 470.370, 338.488 471.977 C 340.247 475.379, 340.453 477.398, 338.945 476.466 C 337.243 475.414, 327.635 460.209, 322.853 451 C 316.804 439.352, 313.915 432.447, 309.488 419.055 L 305.705 407.610 308.689 405.055 C 313.248 401.152, 320.712 391.501, 323.640 385.724 C 327.168 378.761, 329.677 371.306, 332.127 360.500 C 334.397 350.488, 335.841 332, 334.354 332 C 331.580 332, 318.088 349.041, 312.184 360 C 305.505 372.397, 303.783 383.406, 305.887 400.250 C 306.576 405.767, 305.565 408.408, 304.546 403.750 C 298.962 378.200, 296.472 357.048, 297.358 342.691 C 297.670 337.636, 297.942 332.488, 297.963 331.250 C 297.990 329.599, 298.595 329, 300.234 329 C 303.851 329, 314.031 323.379, 320.628 317.739 C 329.625 310.047, 336.436 301.608, 341.459 291.932 C 345.634 283.888, 350.551 269.154, 349.807 266.920 C 349.283 265.348, 331.268 278.257, 323.794 285.560 C 320.091 289.179, 315.040 295.179, 312.571 298.893 C 308.126 305.579, 302.534 318.081, 301.358 323.958 C 300.337 329.064, 298.874 327.361, 299.462 321.750 C 301.165 305.480, 304.399 293.589, 312.972 272.069 C 318.877 257.248, 320.639 254.129, 323.510 253.408 C 324.877 253.065, 326.601 253.017, 327.341 253.301 C 330.593 254.549, 347.331 249.361, 355 244.728 C 361.830 240.601, 372.609 232.116, 380.500 224.654 L 388.500 217.089 384.500 217.046 C 377.533 216.971, 364.441 219.766, 357.073 222.901 C 347.577 226.942, 338.407 233.636, 330.503 242.297 C 326.926 246.215, 324 249.057, 324 248.612 C 324 247.106, 331.222 234.540, 335.814 228.057 C 338.323 224.513, 342.992 218.575, 346.188 214.861 C 349.385 211.147, 352 207.647, 352 207.083 C 352 206.519, 355.263 205.082, 359.250 203.890 C 375.878 198.919, 390.190 189.595, 401.131 176.606 C 407.929 168.535, 426.471 141.138, 425.674 140.341 C 424.222 138.888, 398.637 149.942, 388.947 156.209 C 381.465 161.048, 369.008 172.876, 362.983 180.864 C 360.137 184.636, 356.643 190.981, 354.886 195.567 C 352.411 202.027, 350.317 205.313, 344.372 212.067 C 336.326 221.207, 329.713 230.582, 324.081 240.832 C 317.466 252.872, 315.491 248.955, 321.917 236.538 C 332.075 216.908, 336.431 203.028, 338.029 185.195 C 339.123 172.992, 338.161 157.641, 336.374 158.781 C 335.755 159.177, 332.655 163.100, 329.486 167.500 C 310.207 194.266, 305.112 226.575, 316.993 246.713 L 318.983 250.085 315.616 256.792 C 303.524 280.887, 295 317.171, 295 344.551 C 295 358.940, 296.431 377.708, 298.007 384 C 298.490 385.925, 299.158 389.525, 299.492 392 C 299.827 394.475, 300.326 397.400, 300.603 398.500 C 301.052 400.286, 300.885 400.246, 299.040 398.124 C 297.904 396.817, 296.785 394.792, 296.553 393.624 C 289.889 360.076, 280.496 337.791, 264.199 316.863 L 256.500 306.976 256.193 318.238 C 255.252 352.839, 268.465 380.985, 293.343 397.368 L 301.530 402.760 306.940 419.130 C 320.216 459.310, 341.997 491.796, 374.266 519.546 C 396.226 538.430, 418.891 551.314, 445.102 559.811 C 456.335 563.453, 469.686 567, 472.159 567 C 473.853 567, 495.414 573.766, 501.250 576.129 C 502.762 576.742, 504 577.632, 504 578.107 C 504 578.582, 501.411 580.278, 498.248 581.875 C 492.123 584.966, 485.235 589.901, 477.639 596.638 L 472.973 600.776 475.587 601.432 C 477.024 601.793, 479.511 603.057, 481.112 604.241 L 484.023 606.393 488.262 602.390 C 493.974 596.993, 500.360 592.014, 507.065 587.730 L 512.631 584.175 520.065 589.209 C 524.154 591.978, 530.569 596.951, 534.319 600.259 L 541.138 606.274 543.838 604.278 C 545.324 603.180, 547.575 601.952, 548.842 601.550 C 551.088 600.837, 551.100 600.766, 549.323 598.755 C 546.351 595.390, 532.938 585.731, 526.750 582.500 C 523.590 580.850, 521.004 579.136, 521.002 578.691 C 521.001 578.246, 521.450 578.160, 522 578.500 C 522.550 578.840, 523 578.495, 523 577.734 C 523 576.079, 538.906 570.572, 556.914 565.992 C 604.010 554.013, 635.209 536.479, 666.664 504.313 C 672.804 498.033, 681.094 488.419, 685.087 482.948 C 690.121 476.050, 692.964 473, 694.360 473 C 698.395 473, 711.686 468.668, 719 464.969 C 737.481 455.623, 751.155 438.491, 760.667 412.765 C 763.103 406.178, 764.953 400.358, 764.778 399.833 C 764.260 398.280, 741.119 414.171, 733.182 421.529 C 724.425 429.647, 716.428 439.749, 704.112 458.250 C 699.078 465.812, 694.518 472, 693.979 472 C 692.476 472, 692.762 471.207, 695.912 466.628 C 702.978 456.358, 711.780 436.591, 718.946 414.901 C 722.897 402.942, 723.287 402.226, 727.120 399.921 C 745.315 388.977, 756.521 375.096, 762.941 355.549 C 766.971 343.280, 768.339 332.012, 768.085 313.155 L 768 306.811 764.499 311.002 C 757.452 319.435, 749.119 331.704, 745.139 339.503 C 738.555 352.405, 735.523 361.647, 728.335 390.711 C 726.683 397.392, 724 401.201, 724 396.866 C 724 395.557, 724.422 393.015, 724.938 391.216 C 728.250 379.667, 730.277 345.406, 728.559 330 C 723.806 287.383, 708.405 247.774, 685.204 218.500 C 677.904 209.289, 674.789 206.062, 673.167 206.028 C 672.433 206.013, 672.027 205.438, 672.264 204.750 C 672.890 202.928, 666.878 189.141, 662.961 183.417 C 657.986 176.147, 641.369 159.789, 634.586 155.483 C 623.619 148.521, 614.731 144.600, 598.250 139.453 C 597.563 139.238, 597 139.340, 597 139.678 M 685.700 165.041 C 684.599 178.174, 686.525 196.967, 690.203 208.978 C 691.302 212.565, 694.848 220.923, 698.084 227.552 C 701.320 234.181, 704.603 241.381, 705.380 243.552 L 706.793 247.500 708.875 242.904 C 716.511 226.048, 715.065 205.883, 704.624 183.646 C 700.539 174.947, 690.691 160.526, 687.688 158.845 C 686.564 158.216, 686.169 159.448, 685.700 165.041 M 284.693 227.044 C 276.006 246.419, 273.275 273.608, 278.093 292.760 C 280.432 302.060, 285.420 313.240, 289.780 318.956 L 292.432 322.433 293.253 318.966 C 296.188 306.583, 297.900 287.670, 297.552 271.500 C 297.149 252.826, 295.542 243.645, 290.200 229.500 L 287.179 221.500 284.693 227.044 M 735 223.629 C 735 224.525, 733.847 228.455, 732.437 232.363 C 725.090 252.729, 724.169 277.623, 729.490 312 C 730.214 316.675, 730.562 320.896, 730.264 321.380 C 729.966 321.864, 730.309 322.064, 731.026 321.825 C 733.340 321.053, 742.932 303.925, 745.718 295.590 C 748.198 288.172, 748.426 286.171, 748.461 271.500 C 748.494 257.856, 748.157 254.204, 746.173 246.699 C 743.188 235.413, 737.572 222, 735.831 222 C 735.374 222, 735 222.733, 735 223.629 M 400 258.393 L 400 264 404.250 264.074 C 417.113 264.299, 422.744 267.620, 425.100 276.371 C 426.632 282.060, 426.461 428.573, 424.916 434.312 C 422.829 442.064, 416.817 446.002, 404.750 447.524 L 400 448.123 400 453.186 C 400 458.237, 400.008 458.248, 402.891 457.672 C 416.762 454.898, 463.794 454.397, 478.250 456.870 L 483 457.683 483 452.944 L 483 448.205 476.250 447.042 C 468.758 445.752, 464.077 443.092, 461.441 438.631 C 459.076 434.628, 458.144 419.616, 458.064 384.250 L 458 356 512 356 L 566 356 565.992 387.750 C 565.984 423.254, 565.120 434.452, 561.998 439.504 C 559.324 443.831, 552.760 446.996, 546.154 447.145 L 541 447.261 541 452.451 L 541 457.641 546.250 456.863 C 562.637 454.434, 606.310 454.884, 621.750 457.642 L 625 458.223 625 453.248 L 625 448.274 617.697 447.096 C 608.310 445.582, 604.442 443.197, 601.682 437.223 C 599.502 432.503, 599.500 432.447, 599.500 358.500 C 599.500 317.800, 599.873 281.888, 600.329 278.695 C 601.758 268.685, 606.923 264.857, 620.500 263.746 C 623.388 263.509, 623.511 263.299, 623.807 258.121 C 624.073 253.457, 623.893 252.827, 622.458 253.378 C 614.658 256.371, 567.315 257.264, 550.250 254.740 L 541 253.372 541 258.557 L 541 263.742 547.186 264.442 C 554.133 265.227, 557.408 266.640, 560.867 270.344 C 565.056 274.829, 565.880 281.814, 565.971 313.645 L 566.055 343 511.874 343 L 457.693 343 458.303 311.750 C 458.639 294.563, 459.390 278.865, 459.972 276.866 C 462.243 269.066, 467.278 265.358, 476.975 264.345 L 483 263.715 483 258.389 C 483 254.546, 482.652 253.193, 481.750 253.529 C 477.300 255.189, 452.638 256.877, 438.500 256.490 C 422.344 256.048, 404.655 254.572, 401.639 253.415 C 400.241 252.878, 400 253.609, 400 258.393 M 259 400.572 C 259 403.118, 265.729 419.660, 270.488 428.814 C 282.274 451.483, 298.393 465.221, 319.980 470.998 C 329.970 473.672, 330.629 473.610, 328.004 470.250 C 326.822 468.738, 321.860 461.425, 316.976 454 C 303.997 434.267, 288.765 418.258, 273.877 408.701 C 270.370 406.449, 265.587 403.361, 263.250 401.837 C 260.028 399.738, 259 399.432, 259 400.572 M 290 483.634 C 290 485.035, 307.377 503.082, 313.722 508.270 C 326.774 518.943, 340.724 526.226, 353.463 529.017 C 359.661 530.375, 378.478 530.405, 380.784 529.061 C 382.385 528.128, 382.380 528.059, 380.706 528.030 C 379.720 528.014, 377.245 526.461, 375.206 524.581 C 371.261 520.941, 353.133 507.442, 346.556 503.246 C 340.114 499.136, 323.979 491.439, 317 489.148 C 310.735 487.090, 293.820 483.066, 291.250 483.022 C 290.563 483.010, 290 483.285, 290 483.634 M 719.432 485.443 C 708.487 488.273, 697.055 492.745, 687.153 498.070 C 677.074 503.491, 671.470 507.349, 657.536 518.460 C 650.955 523.707, 644.768 528, 643.786 528 C 642.804 528, 642 528.450, 642 529 C 642 530.030, 651.299 530.575, 661 530.114 C 675.228 529.439, 691.317 522.943, 705.809 512.023 C 713.022 506.588, 730.946 488.634, 733.225 484.562 C 734.479 482.321, 730.530 482.573, 719.432 485.443 M 415.568 501.750 C 419.597 520.020, 426.219 532.205, 438.423 543.797 C 446.028 551.021, 457.192 557.445, 467.328 560.430 C 471.779 561.740, 472.102 561.720, 471.451 560.176 C 471.062 559.254, 469.882 556.306, 468.829 553.625 C 462.598 537.768, 452.806 524.588, 439.229 513.785 C 432.928 508.770, 417.459 499, 415.821 499 C 415.349 499, 415.235 500.238, 415.568 501.750 M 604.500 501.548 C 602.300 502.852, 599.145 504.613, 597.488 505.461 C 591.985 508.277, 577.203 520.873, 571.155 527.900 C 563.969 536.250, 557.979 546.118, 554.544 555.269 L 552.003 562.037 554.752 561.389 C 569.254 557.970, 587.082 545.461, 596.067 532.403 C 601.787 524.089, 609.691 504.373, 608.822 500.583 C 608.570 499.482, 607.628 499.693, 604.500 501.548 M 367.798 551.892 C 361.911 552.816, 356.867 553.799, 356.588 554.078 C 355.381 555.285, 377.027 567.504, 388 571.810 C 398.081 575.765, 406.885 577.306, 419.500 577.321 C 432.172 577.336, 440.996 575.537, 451.950 570.702 L 456.954 568.494 445.227 563.812 C 427.837 556.869, 411.862 552.360, 400.211 551.107 C 386.981 549.684, 380.937 549.830, 367.798 551.892 M 617 551.969 C 603.902 554.424, 569.118 566.730, 569.781 568.675 C 569.936 569.129, 573.862 570.963, 578.506 572.751 C 589.454 576.968, 603.605 578.653, 615.089 577.107 C 629.293 575.196, 648.219 567.824, 662.404 558.678 C 670.380 553.536, 671.106 554.121, 653.500 551.500 C 640.641 549.586, 628.910 549.737, 617 551.969 M 753 663.087 C 739.932 664.538, 730.703 669.087, 722.644 678.051 C 710.318 691.760, 707.690 714.764, 716.422 732.509 C 724.483 748.890, 739.046 757.447, 760.500 758.406 C 769.773 758.821, 782.330 757.060, 789.500 754.339 L 794.500 752.442 795 736.322 C 795.435 722.303, 795.748 719.928, 797.405 718.101 C 798.453 716.946, 799.915 716, 800.655 716 C 801.395 716, 802 715.334, 802 714.520 C 802 713.271, 799.347 713.043, 785 713.054 C 770.736 713.065, 768 713.303, 768 714.534 C 768 715.507, 769.043 716, 771.100 716 C 773.298 716, 775.199 716.999, 777.630 719.430 L 781.061 722.861 780.780 735.626 L 780.500 748.392 777.079 750.388 C 772.472 753.076, 759.659 753.230, 752.329 750.687 C 731.298 743.387, 720.672 710.308, 731.563 686.040 C 734.692 679.067, 739.755 673.901, 746.500 670.799 C 750.709 668.864, 753.161 668.500, 762 668.500 C 771.205 668.500, 773.099 668.806, 777.354 670.979 C 782.822 673.772, 786.269 677.443, 789.318 683.718 C 792.908 691.107, 794.006 689.424, 793.926 676.655 L 793.855 665.311 781.177 664.118 C 764.359 662.535, 759.555 662.359, 753 663.087 M 352.310 664.431 C 352.481 664.943, 354.113 665.865, 355.937 666.479 C 357.762 667.093, 360.097 668.636, 361.127 669.909 C 362.884 672.078, 362.999 674.550, 362.985 709.861 C 362.974 737.951, 362.653 748.134, 361.720 750 C 360.844 751.752, 359.203 752.782, 356.235 753.442 C 353.894 753.963, 352 754.969, 352 755.692 C 352 756.721, 355.841 757, 370 757 C 384.692 757, 388 756.745, 388 755.611 C 388 754.827, 386.537 753.948, 384.637 753.592 C 378.119 752.369, 377.537 750.725, 377.184 732.525 L 376.869 716.254 382.676 716.377 L 388.483 716.500 401.771 736 C 410.375 748.626, 415.841 755.729, 417.279 756.150 C 418.501 756.508, 423.887 756.845, 429.250 756.900 C 436.951 756.979, 439 756.708, 439 755.611 C 439 754.816, 437.504 753.942, 435.499 753.566 C 431.426 752.802, 425.677 746.411, 415.778 731.641 C 412.409 726.613, 407.930 720.157, 405.826 717.293 C 401.533 711.450, 401.369 711, 403.533 711 C 406.587 711, 414.869 705.983, 417.919 702.284 C 423.687 695.293, 424.642 685.688, 420.414 677.203 C 417.410 671.175, 414.762 669.066, 406.500 666.122 C 401.090 664.194, 398.116 663.960, 376.249 663.742 C 361.608 663.596, 352.122 663.869, 352.310 664.431 M 517.667 663.663 C 517.575 663.753, 517.638 669.442, 517.806 676.305 C 518.083 687.629, 518.274 688.741, 519.866 688.325 C 520.925 688.048, 522.073 686.176, 522.760 683.607 C 524.197 678.235, 531.143 671.577, 536.938 670.017 C 539.352 669.367, 543.520 669.186, 547.004 669.580 L 552.950 670.253 553.225 704.876 C 553.376 723.919, 553.258 741.911, 552.962 744.858 C 552.350 750.955, 550.717 752.702, 544.737 753.658 C 542.583 754.002, 541.084 754.754, 541.294 755.384 C 541.546 756.141, 547.836 756.587, 560.833 756.772 C 577.444 757.007, 580 756.840, 580 755.522 C 580 754.573, 579.076 754, 577.547 754 C 576.198 754, 573.978 753.492, 572.615 752.870 C 567.745 750.651, 567.488 748.367, 567.652 708.726 C 567.736 688.501, 568.059 671.289, 568.371 670.476 C 569.118 668.528, 580.767 668.458, 585.355 670.375 C 590.572 672.555, 595.876 677.841, 598.150 683.127 C 601.774 691.552, 603 689.688, 603 675.750 L 603 663.500 560.417 663.500 C 536.996 663.500, 517.759 663.573, 517.667 663.663 M 652.831 664.711 C 650.977 665.860, 649.550 668.228, 648.162 672.458 C 644.933 682.292, 619.414 745.719, 617.527 748.599 C 616.578 750.048, 614.050 751.969, 611.911 752.867 C 609.771 753.765, 608.016 755.075, 608.010 755.778 C 607.996 757.592, 635.145 757.075, 635.751 755.250 C 635.997 754.511, 635.296 754, 634.038 754 C 630.945 754, 626.988 749.629, 627.063 746.295 C 627.097 744.758, 628.785 739.305, 630.813 734.179 L 634.500 724.858 650.792 724.770 C 659.752 724.723, 667.476 725.092, 667.956 725.592 C 669.673 727.379, 676.082 745.227, 676.289 748.799 C 676.493 752.326, 676.365 752.470, 672.216 753.370 C 669.860 753.880, 668.098 754.794, 668.300 755.399 C 668.763 756.787, 702 757.338, 702 755.958 C 702 755.446, 700.448 754.378, 698.551 753.586 C 694.661 751.960, 692.394 748.016, 684.707 729.500 C 676.366 709.409, 665.278 682.624, 661.351 673.079 C 659.220 667.898, 657.031 663.523, 656.488 663.357 C 655.944 663.192, 654.299 663.801, 652.831 664.711 M 136 665 C 136 665.550, 136.935 666, 138.077 666 C 139.219 666, 141.469 667.315, 143.077 668.923 L 146 671.846 145.994 708.173 C 145.991 729.245, 145.570 746.008, 144.991 748.091 C 144.025 751.569, 140.924 754, 137.453 754 C 136.654 754, 136 754.675, 136 755.500 C 136 756.775, 138.556 757, 153 757 C 167.444 757, 170 756.775, 170 755.500 C 170 754.521, 169.019 754, 167.174 754 C 165.431 754, 163.420 753.013, 161.924 751.421 C 159.537 748.882, 159.500 748.556, 159.500 730.171 L 159.500 711.500 182.790 711.500 C 205.594 711.500, 206.091 711.544, 206.609 713.594 C 206.900 714.746, 206.995 723.138, 206.819 732.242 C 206.461 750.837, 206.014 752.088, 199.167 753.708 C 191.402 755.544, 195.817 756.505, 213.250 756.773 C 228.600 757.009, 231 756.840, 231 755.523 C 231 754.584, 230.084 754, 228.611 754 C 227.297 754, 225.167 753.146, 223.878 752.103 C 221.928 750.524, 221.442 748.972, 220.977 742.853 C 220.527 736.934, 220.470 687.799, 220.898 674.250 C 221.020 670.377, 223.916 667.167, 228.031 666.344 C 235.255 664.899, 229.681 664, 213.500 664 C 202.500 664, 196 664.371, 196 665 C 196 665.550, 197.160 666, 198.577 666 C 200.092 666, 202.359 667.205, 204.077 668.923 L 207 671.846 207 687.423 L 207 703 184 703 C 171.350 703, 160.662 703.112, 160.250 703.250 C 159.838 703.388, 159.382 696.975, 159.238 689 C 158.932 672.112, 160.061 668.218, 165.750 666.543 C 167.537 666.017, 169 665.229, 169 664.793 C 169 664.357, 161.575 664, 152.500 664 C 142.167 664, 136 664.374, 136 665 M 255 664.889 C 255 665.377, 256.513 666.061, 258.363 666.408 C 265.284 667.707, 265.085 666.418, 265.024 709.467 C 264.992 731.790, 264.568 748.938, 264.023 749.957 C 263.105 751.673, 259.379 753.569, 255.697 754.194 C 254.706 754.362, 253.806 754.950, 253.697 755.500 C 253.569 756.148, 266.021 756.592, 289.038 756.762 L 324.575 757.025 326.318 746.920 C 327.277 741.362, 328.160 736.321, 328.281 735.717 C 328.401 735.113, 327.704 734.445, 326.731 734.232 C 325.487 733.961, 324.540 734.857, 323.538 737.256 C 321.747 741.540, 315.317 747.423, 310.881 748.834 C 306.754 750.147, 293.211 751.872, 286.784 751.903 C 279.088 751.940, 279 751.692, 279 729.929 L 279 711 288.250 711.006 C 302.527 711.014, 308 713.430, 308 719.723 C 308 721.333, 308.585 722, 310 722 C 311.909 722, 312 721.333, 312 707.427 C 312 694.215, 311.840 692.884, 310.290 693.183 C 309.253 693.382, 308.300 694.879, 307.870 696.982 C 307.480 698.890, 306.212 701.219, 305.054 702.157 C 302.263 704.418, 293.036 705.589, 281.750 705.115 L 279 705 279 686.884 L 279 668.768 292.258 669.156 C 305.002 669.528, 305.691 669.659, 310.008 672.528 C 312.817 674.395, 315.350 677.197, 316.769 680.007 C 320.383 687.165, 321.460 685.929, 321.785 674.250 L 322.070 664 288.535 664 C 269.645 664, 255 664.388, 255 664.889 M 459 664.824 C 459 665.277, 461.132 666.289, 463.737 667.074 C 466.943 668.039, 468.878 669.308, 469.723 671 C 470.652 672.861, 470.974 682.996, 470.985 710.673 L 471 747.847 468.411 750.923 C 466.612 753.061, 464.934 754, 462.911 754 C 460.990 754, 460 754.510, 460 755.501 C 460 756.781, 462.640 756.994, 478 756.950 C 493.028 756.907, 496 756.659, 496 755.449 C 496 754.652, 495.121 754, 494.047 754 C 490.817 754, 487.289 751.930, 486.110 749.343 C 484.893 746.671, 484.670 676.491, 485.864 672 C 486.298 670.369, 487.989 668.805, 490.728 667.500 C 493.038 666.400, 494.944 665.163, 494.964 664.750 C 494.984 664.337, 486.900 664, 477 664 C 467.100 664, 459 664.371, 459 664.824 M 825 664.875 C 825 665.356, 826.237 666.026, 827.750 666.363 C 829.263 666.700, 831.400 667.676, 832.500 668.531 C 834.440 670.040, 834.500 671.272, 834.500 709.439 C 834.500 746.604, 834.395 748.907, 832.613 750.876 C 831.575 752.023, 829.212 753.245, 827.363 753.592 C 825.513 753.939, 824 754.827, 824 755.565 C 824 756.661, 830.311 756.920, 858.366 756.974 L 892.732 757.040 893.847 751.270 C 894.461 748.096, 895.258 742.913, 895.619 739.750 C 896.178 734.850, 896.036 734, 894.658 734 C 893.768 734, 892.133 735.780, 891.023 737.955 C 886.627 746.572, 878.219 750.562, 862.341 751.567 C 853.393 752.133, 851.241 751.995, 850.240 750.790 C 849.426 749.808, 848.838 742.954, 848.460 730.031 L 847.896 710.739 858.976 711.195 C 871.450 711.709, 874.755 713.162, 876.386 718.852 C 877.260 721.898, 879.945 723.288, 880.053 720.750 C 880.083 720.063, 880.195 713.538, 880.303 706.251 C 880.480 694.357, 880.326 693.002, 878.795 693.001 C 877.645 693, 876.881 694.116, 876.446 696.435 C 876.092 698.324, 874.962 700.629, 873.936 701.558 C 870.649 704.533, 858.367 706.255, 848.707 705.095 C 847.847 704.992, 847.849 674.292, 848.709 671.004 C 849.190 669.167, 850.068 669, 859.251 669 C 864.760 669, 870.982 669.514, 873.078 670.141 C 878.296 671.705, 883.521 676.243, 885.644 681.054 C 886.733 683.523, 887.988 684.956, 888.904 684.780 C 890.104 684.549, 890.404 682.499, 890.447 674.246 L 890.500 664 857.750 664 C 839.702 664, 825 664.393, 825 664.875 M 376.796 684.314 C 376.633 693.216, 376.637 702.638, 376.805 705.250 L 377.110 710 385.587 710 C 395.504 710, 399.321 708.677, 403.660 703.735 C 409.926 696.598, 410.546 686.707, 405.269 678.056 C 401.421 671.748, 395.841 669.100, 385.238 668.550 L 377.092 668.128 376.796 684.314 M 650 683.259 C 650 683.493, 647.300 691.251, 644 700.500 C 640.700 709.749, 638.001 717.582, 638.001 717.908 C 638.002 718.234, 644.078 718.500, 651.502 718.500 C 658.927 718.500, 664.986 718.275, 664.967 718 C 664.810 715.757, 651.950 683.483, 651.100 683.200 C 650.495 682.998, 650 683.025, 650 683.259 M 444.267 797.996 C 434.703 800.016, 426.354 806.572, 421.953 815.516 C 419.900 819.687, 419.500 821.968, 419.500 829.500 C 419.500 837.119, 419.882 839.248, 421.991 843.378 C 425.460 850.171, 431.184 855.734, 437.842 858.782 C 442.792 861.048, 444.814 861.371, 454 861.364 C 461.956 861.357, 465.833 860.873, 470 859.365 L 475.500 857.376 476 846.596 C 476.448 836.947, 476.736 835.625, 478.750 833.998 C 479.988 832.998, 481 831.914, 481 831.590 C 481 831.265, 475.505 831, 468.788 831 L 456.576 831 461.038 833.250 L 465.500 835.500 465.500 844.988 L 465.500 854.476 462.500 855.931 C 458.609 857.819, 449.519 857.642, 444.745 855.586 C 440.820 853.896, 435.890 848.012, 433.367 842.008 C 431.463 837.477, 430.269 824.832, 431.162 818.653 C 432.699 808.013, 441.577 801.029, 453.593 801.010 C 461.999 800.996, 467.621 804.022, 470.851 810.299 C 472.171 812.864, 473.645 814.720, 474.126 814.422 C 474.606 814.125, 475 810.591, 475 806.570 L 475 799.258 470.250 798.665 C 460.463 797.443, 448.359 797.131, 444.267 797.996 M 816.601 798.539 C 809.495 800.325, 805.347 802.767, 800.717 807.891 C 790.265 819.461, 790.569 839.769, 801.376 851.731 C 810.434 861.757, 832.531 864.960, 846.543 858.278 L 850 856.630 850 846.451 C 850 836.847, 850.145 836.127, 852.576 833.696 L 855.153 831.120 843.074 830.810 C 835.331 830.611, 831.116 830.859, 831.331 831.500 C 831.515 832.050, 832.528 832.657, 833.583 832.850 C 834.637 833.042, 836.513 834.133, 837.750 835.274 C 839.648 837.024, 839.998 838.376, 839.986 843.924 C 839.968 852.742, 839.332 854.620, 835.881 856.049 C 828.739 859.007, 817.528 856.527, 812.367 850.847 C 804.532 842.226, 802.002 822.829, 807.300 812.007 C 811.724 802.971, 823.083 798.803, 834.542 802.012 C 839.390 803.369, 844.522 808.248, 845.594 812.518 C 846.831 817.449, 848 814.837, 848 807.139 L 848 799.279 842.750 798.614 C 830.845 797.107, 822.396 797.083, 816.601 798.539 M 173.316 799.445 C 173.489 799.965, 174.913 800.734, 176.480 801.153 C 178.047 801.572, 179.698 802.497, 180.149 803.208 C 181.315 805.044, 181.209 853.740, 180.036 855.934 C 179.505 856.925, 177.705 858.009, 176.036 858.343 C 174.366 858.677, 173 859.446, 173 860.053 C 173 860.829, 178.552 861.059, 191.750 860.828 C 209.710 860.514, 210.744 860.386, 216.290 857.787 C 221.244 855.466, 222.374 854.409, 224.116 850.470 C 228.666 840.184, 223.332 830.801, 210.500 826.518 C 208.698 825.917, 208.799 825.724, 211.519 824.571 C 213.179 823.867, 215.991 821.635, 217.769 819.611 C 223.934 812.589, 221.306 803.340, 212.100 799.657 C 208.993 798.414, 204.583 798.135, 190.597 798.296 C 180.081 798.418, 173.128 798.880, 173.316 799.445 M 246.324 799.472 C 246.502 800.007, 247.736 800.702, 249.066 801.016 C 253.394 802.037, 253.968 804.997, 254.007 826.500 C 254.056 853.017, 255.423 856.154, 268.841 860.543 C 279.982 864.187, 295.357 859.947, 300.801 851.729 C 303.465 847.707, 303.507 847.385, 304.041 826.577 C 304.338 814.985, 304.957 804.690, 305.417 803.700 C 305.877 802.710, 307.563 801.637, 309.165 801.317 C 314.891 800.172, 311.308 798.926, 301.239 798.560 C 295.607 798.356, 291 798.528, 291 798.943 C 291 799.357, 292.800 800.404, 295 801.268 L 299 802.839 299 823.399 C 299 851.357, 297.480 854.782, 284.018 857.154 C 278.352 858.152, 277.620 858.049, 272.468 855.528 C 263.780 851.278, 263.500 850.335, 263.500 825.403 C 263.500 803.083, 263.812 801.465, 268.244 800.810 C 269.399 800.640, 270.491 800.050, 270.671 799.500 C 270.877 798.869, 266.383 798.500, 258.498 798.500 C 250.846 798.500, 246.125 798.877, 246.324 799.472 M 333.298 799.383 C 333.458 799.869, 335.139 800.769, 337.033 801.383 C 340.189 802.406, 340.538 802.919, 341.193 807.500 C 341.586 810.250, 341.816 821.994, 341.704 833.597 C 341.483 856.475, 341.282 857.340, 335.931 858.515 C 334.319 858.869, 333 859.621, 333 860.186 C 333 860.867, 339.465 861.065, 352.250 860.773 C 369.439 860.381, 372.119 860.085, 377.280 858.017 C 389.924 852.948, 397 842.719, 397 829.510 C 397 813.754, 387.070 801.850, 371.616 799.079 C 364.555 797.814, 332.864 798.065, 333.298 799.383 M 503.327 799.474 C 503.504 800.010, 505.137 800.753, 506.954 801.124 C 508.772 801.496, 510.643 802.408, 511.114 803.150 C 512.327 805.064, 512.230 853.702, 511.008 855.984 C 510.463 857.004, 508.663 858.135, 507.008 858.498 C 499.164 860.221, 505.668 861, 527.897 861 L 551.795 861 552.897 854.668 C 553.504 851.186, 554 847.811, 554 847.168 C 554 845.010, 552.129 845.974, 550.307 849.069 C 547.220 854.313, 542.944 856.197, 532.820 856.775 C 525.766 857.177, 523.604 856.985, 522.914 855.895 C 522.428 855.128, 522.024 848.987, 522.015 842.250 L 522 830 528.777 830 C 536.184 830, 540 831.719, 540 835.057 C 540 836.138, 540.682 837, 541.538 837 C 542.831 837, 543.029 835.531, 542.788 827.750 C 542.617 822.257, 542.094 818.585, 541.500 818.710 C 540.950 818.826, 540.369 819.742, 540.209 820.746 C 539.760 823.553, 536.914 824.789, 529.131 825.556 L 522 826.258 522 813.999 L 522 801.739 530.750 802.276 C 541.409 802.930, 544.108 804.068, 546.938 809.103 C 548.142 811.246, 549.549 813, 550.064 813 C 550.579 813, 551 809.589, 551 805.419 L 551 797.838 527.002 798.169 C 512.021 798.376, 503.126 798.866, 503.327 799.474 M 575.175 806.500 C 575.110 811.175, 575.232 815, 575.446 815 C 577.215 815, 579 813.457, 579 811.928 C 579 810.906, 580.384 808.493, 582.076 806.566 C 585.465 802.707, 589.815 801.368, 595.500 802.434 L 599 803.091 599 828.464 C 599 842.419, 598.735 854.526, 598.412 855.370 C 598.088 856.213, 596.288 857.410, 594.412 858.029 C 588.065 860.124, 590.893 861, 604 861 C 612 861, 617 860.615, 617 860 C 617 859.450, 616.100 859, 615 859 C 613.900 859, 612.100 858.100, 611 857 C 609.100 855.100, 609 853.667, 609 828.380 L 609 801.760 614.878 802.185 C 622.082 802.706, 625.752 804.960, 627.772 810.102 C 630.370 816.714, 632 815.132, 632 806 L 632 798 603.647 798 L 575.295 798 575.175 806.500 M 656.318 799.454 C 656.493 799.979, 658.015 800.766, 659.701 801.202 C 661.651 801.708, 662.985 802.815, 663.369 804.248 C 664.382 808.026, 664.077 853.987, 663.027 855.949 C 662.492 856.949, 660.454 858.067, 658.499 858.434 C 656.544 858.801, 655.208 859.528, 655.531 860.051 C 656.346 861.368, 682 861.295, 682 859.975 C 682 859.411, 680.615 858.673, 678.922 858.334 C 676.913 857.933, 675.523 856.877, 674.922 855.294 C 673.693 852.063, 673.729 806.375, 674.962 804.071 C 675.491 803.083, 677.291 801.708, 678.962 801.016 C 680.633 800.324, 682 799.474, 682 799.129 C 682 798.783, 676.150 798.500, 669 798.500 C 661.195 798.500, 656.127 798.881, 656.318 799.454 M 705 799.087 C 705 799.575, 706.578 800.632, 708.506 801.438 C 710.672 802.343, 712.417 803.968, 713.071 805.686 C 713.740 807.446, 714.013 817.006, 713.814 831.701 C 713.476 856.729, 713.307 857.508, 708.048 858.310 C 706.705 858.515, 705.432 859.204, 705.219 859.842 C 704.942 860.675, 708.083 861, 716.417 861 C 727.961 861, 731.254 859.900, 724.750 858.216 C 719.549 856.869, 719.031 854.662, 719.015 833.750 C 719.007 823.438, 719.337 815.037, 719.750 815.082 C 720.739 815.190, 750.480 848.052, 760.185 859.760 C 761.662 861.542, 763.350 863, 763.935 863 C 764.664 863, 765 853.895, 765 834.191 C 765 803.197, 765.094 802.604, 770.232 801.230 C 775.637 799.785, 772.809 798.851, 762.500 798.677 C 754.672 798.545, 752 798.818, 752 799.750 C 752 800.438, 752.930 801, 754.066 801 C 755.202 801, 757.002 801.466, 758.066 802.035 C 759.876 803.004, 760 804.314, 760 822.535 C 760 833.241, 759.663 841.960, 759.250 841.911 C 758.837 841.863, 756.063 839.050, 753.083 835.661 C 748.484 830.430, 739.580 820.721, 722.939 802.795 C 719.697 799.303, 719.085 799.065, 712.250 798.646 C 708.263 798.402, 705 798.600, 705 799.087 M 191 814 L 191 826 195.684 826 C 201.635 826, 208.589 822.696, 210.527 818.947 C 211.337 817.381, 212 814.092, 212 811.639 C 212 807.885, 211.512 806.767, 208.923 804.589 C 206.218 802.313, 204.950 802, 198.423 802 L 191 802 191 814 M 351.079 825.250 C 351.119 838.038, 351.461 850.300, 351.839 852.500 L 352.526 856.500 358.329 856.802 C 378.078 857.829, 388.393 844.802, 384.947 823.183 C 382.649 808.766, 373.911 802.090, 357.253 802.024 L 351.006 802 351.079 825.250 M 197.221 829.798 L 190.943 830.097 191.221 843.298 L 191.500 856.500 197.542 856.792 C 205.641 857.184, 210.855 855.349, 213.713 851.102 C 217.518 845.449, 216.353 838.277, 210.845 833.441 C 207.291 830.320, 204.115 829.471, 197.221 829.798" stroke="none" fill="#233520" fill-rule="evenodd"/></svg>